<!-- Crimson Imperial: Variable data: serial, verification code, issue date --><svg xmlns="http://www.w3.org/2000/svg" viewBox="0 0 297 210" width="297mm" height="210mm" preserveAspectRatio="none" aria-hidden="true" focusable="false"><rect x="22.00" y="172.00" width="20.00" height="20.00" fill="none" stroke="#E3C169" stroke-width="0.34"/><rect x="23.60" y="173.60" width="16.80" height="16.80" fill="#ECE5DB"/><path d="M23.60 190.40 L40.40 173.60" stroke="#D6CEC5" stroke-width="0.20"/><text x="32.00" y="182.70" text-anchor="middle" font-size="1.85" letter-spacing="0.10" font-family="Inter, sans-serif" fill="#90807F">QR BAY RESERVED</text><text x="32.00" y="194.60" text-anchor="middle" font-size="1.7" letter-spacing="0.30" font-family="Inter, sans-serif" fill="#867575">VERIFY AUTHENTICITY</text><rect x="48.00" y="185.00" width="62.00" height="12.00" fill="none" stroke="#E3C169" stroke-width="0.40"/><rect x="48.80" y="185.80" width="60.40" height="10.40" fill="none" stroke="#4A3714" stroke-width="0.14"/><defs><clipPath id="num-578495"><rect x="49.20" y="186.20" width="59.60" height="9.60"/></clipPath></defs><g clip-path="url(#num-578495)"><path d="M107.57 191.00L107.71 190.80L108.13 190.69L108.80 190.72L109.67 190.98L110.67 191.51L111.73 192.34L112.77 193.49L113.71 194.94L114.47 196.67L114.98 198.63L115.20 200.76L115.07 202.98L114.60 205.21L113.78 207.37L112.64 209.37L111.22 211.16L109.59 212.67L107.82 213.86L105.98 214.71L104.16 215.23L102.45 215.44L100.90 215.36L99.58 215.08L98.54 214.64L97.78 214.14L97.33 213.65L97.15 213.25L97.21 213.01L97.45 213.00L97.81 213.25L98.21 213.79L98.56 214.62L98.79 215.73L98.83 217.08L98.61 218.61L98.09 220.26L97.24 221.95L96.06 223.59L94.55 225.11L92.76 226.43L90.74 227.49L88.56 228.23L86.29 228.63L84.01 228.68L81.80 228.38L79.76 227.78L77.93 226.91L76.37 225.84L75.12 224.64L74.19 223.40L73.57 222.21L73.24 221.12L73.15 220.22L73.23 219.56L73.43 219.16L73.65 219.06L73.81 219.24L73.85 219.67L73.69 220.32L73.27 221.13L72.56 222.01L71.55 222.90L70.23 223.71L68.62 224.36L66.78 224.78L64.76 224.92L62.63 224.73L60.47 224.19L58.37 223.31L56.41 222.10L54.65 220.60L53.16 218.88L51.98 216.99L51.14 215.02L50.65 213.06L50.48 211.18L50.60 209.45L50.96 207.95L51.49 206.71L52.12 205.76L52.75 205.12L53.32 204.76L53.75 204.66L53.97 204.76L53.94 205.00L53.62 205.31L53.02 205.60L52.13 205.79L51.00 205.81L49.67 205.59L48.20 205.09L46.68 204.27L45.18 203.12L43.79 201.65L42.58 199.89L41.62 197.88L40.96 195.70L40.64 193.41L40.67 191.11L41.05 188.86L41.75 186.75L42.73 184.85L43.93 183.22L45.27 181.89L46.68 180.88L48.07 180.20L49.37 179.82L50.49 179.69L51.39 179.77L52.03 179.98L52.38 180.25L52.44 180.48L52.23 180.61L51.80 180.57L51.19 180.29L50.48 179.73L49.74 178.87L49.06 177.70L48.52 176.25L48.18 174.56L48.11 172.67L48.35 170.66L48.94 168.60L49.87 166.58L51.13 164.68L52.69 162.98L54.49 161.53L56.46 160.39L58.53 159.59L60.62 159.14L62.64 159.02L64.52 159.21L66.20 159.65L67.61 160.29L68.73 161.04L69.54 161.83L70.05 162.57L70.30 163.20L70.32 163.63L70.17 163.83L69.94 163.76L69.70 163.39L69.53 162.74L69.51 161.84L69.70 160.72L70.16 159.45L70.93 158.11L72.02 156.77L73.43 155.51L75.14 154.42L77.10 153.56L79.25 152.99L81.51 152.75L83.82 152.86L86.08 153.33L88.22 154.12L90.15 155.21L91.84 156.53L93.22 158.01L94.27 159.58L94.99 161.15L95.40 162.64L95.54 163.99L95.45 165.11L95.20 165.99L94.87 166.57L94.55 166.87L94.31 166.88L94.22 166.65L94.34 166.24L94.74 165.69L95.42 165.10L96.40 164.53L97.67 164.08L99.20 163.82L100.93 163.80L102.80 164.09L104.73 164.71L106.64 165.67L108.44 166.96L110.07 168.55L111.46 170.40L112.54 172.44L113.29 174.59L113.69 176.78L113.74 178.92L113.48 180.93L112.94 182.74L112.19 184.30L111.31 185.56L110.36 186.52L109.43 187.17L108.60 187.54L107.94 187.66L107.51 187.60L107.34 187.42L107.46 187.21L107.86 187.04L108.53 186.99L109.42 187.14L110.48 187.54L111.64 188.23L112.82 189.24L113.93 190.56L114.90 192.18L115.66 194.06L116.13 196.15L116.29 198.36L116.10 200.63L115.56 202.88L114.68 205.01L113.50 206.96L112.07 208.66L110.46 210.07L108.74 211.15L107.00 211.89L105.32 212.30L103.78 212.43L102.44 212.31L101.34 212.01L100.54 211.60L100.02 211.17L99.79 210.80L99.82 210.55L100.06 210.51L100.45 210.71L100.91 211.20L101.37 211.98L101.74 213.05L101.94 214.39L101.91 215.93L101.60 217.64L100.97 219.42L100.01 221.20L98.71 222.89L97.10 224.43L95.23 225.73L93.15 226.74L90.95 227.42L88.69 227.76L86.47 227.74L84.36 227.39L82.43 226.76L80.76 225.89L79.36 224.86L78.29 223.75L77.52 222.64L77.06 221.61L76.85 220.72L76.86 220.05L77.00 219.64L77.21 219.51L77.39 219.67L77.48 220.09L77.40 220.76L77.09 221.61L76.50 222.58L75.60 223.58L74.39 224.55L72.89 225.40L71.11 226.04L69.12 226.43L66.99 226.51L64.78 226.25L62.58 225.64L60.48 224.69L58.55 223.42L56.86 221.90L55.45 220.17L54.38 218.33L53.64 216.44L53.24 214.59L53.14 212.87L53.31 211.33L53.68 210.03L54.18 209.01L54.73 208.29L55.25 207.87L55.66 207.72L55.89 207.79L55.89 208.03L55.62 208.38L55.05 208.74L54.20 209.04L53.08 209.20L51.73 209.15L50.21 208.84L48.60 208.21L46.97 207.26L45.40 205.98L43.98 204.38L42.77 202.51L41.85 200.43L41.24 198.20L40.98 195.91L41.08 193.63L41.51 191.45L42.25 189.44L43.23 187.67L44.40 186.19L45.67 185.01L46.96 184.16L48.20 183.62L49.30 183.36L50.20 183.32L50.86 183.45L51.24 183.67L51.33 183.90L51.14 184.05L50.71 184.06L50.07 183.86L49.29 183.39L48.45 182.63L47.63 181.56L46.91 180.19L46.36 178.55L46.05 176.68L46.05 174.66L46.37 172.54L47.04 170.43L48.05 168.38L49.38 166.50L50.99 164.84L52.80 163.46L54.76 162.40L56.77 161.69L58.76 161.32L60.65 161.27L62.37 161.50L63.85 161.96L65.05 162.56L65.96 163.24L66.56 163.92L66.88 164.51L66.95 164.94L66.84 165.15L66.60 165.11L66.31 164.77L66.06 164.15L65.93 163.26L65.98 162.13L66.28 160.81L66.87 159.38L67.79 157.91L69.03 156.49L70.59 155.19L72.42 154.09L74.48 153.26L76.70 152.74L79.00 152.56L81.30 152.74L83.52 153.26L85.58 154.09L87.41 155.19L88.97 156.49L90.21 157.91L91.13 159.38L91.72 160.81L92.02 162.13L92.07 163.26L91.94 164.15L91.69 164.77L91.40 165.11L91.16 165.15L91.05 164.94L91.12 164.51L91.44 163.92L92.04 163.24L92.95 162.56L94.15 161.96L95.63 161.50L97.35 161.27L99.24 161.32L101.23 161.69L103.24 162.40L105.20 163.46L107.01 164.84L108.62 166.50L109.95 168.38L110.96 170.43L111.63 172.54L111.95 174.66L111.95 176.68L111.64 178.55L111.09 180.19L110.37 181.56L109.55 182.63L108.71 183.39L107.93 183.86L107.29 184.06L106.86 184.05L106.67 183.90L106.76 183.67L107.14 183.45L107.80 183.32L108.70 183.36L109.80 183.62L111.04 184.16L112.33 185.01L113.60 186.19L114.77 187.67L115.75 189.44L116.49 191.45L116.92 193.63L117.02 195.91L116.76 198.20L116.15 200.43L115.23 202.51L114.02 204.38L112.60 205.98L111.03 207.26L109.40 208.21L107.79 208.84L106.27 209.15L104.92 209.20L103.80 209.04L102.95 208.74L102.38 208.38L102.11 208.03L102.11 207.79L102.34 207.72L102.75 207.87L103.27 208.29L103.82 209.01L104.32 210.03L104.69 211.33L104.86 212.87L104.76 214.59L104.36 216.44L103.62 218.33L102.55 220.17L101.14 221.90L99.45 223.42L97.52 224.69L95.42 225.64L93.22 226.25L91.01 226.51L88.88 226.43L86.89 226.04L85.11 225.40L83.61 224.55L82.40 223.58L81.50 222.58L80.91 221.61L80.60 220.76L80.52 220.09L80.61 219.67L80.79 219.51L81.00 219.64L81.14 220.05L81.15 220.72L80.94 221.61L80.48 222.64L79.71 223.75L78.64 224.86L77.24 225.89L75.57 226.76L73.64 227.39L71.53 227.74L69.31 227.76L67.05 227.42L64.85 226.74L62.77 225.73L60.90 224.43L59.29 222.89L57.99 221.20L57.03 219.42L56.40 217.64L56.09 215.93L56.06 214.39L56.26 213.05L56.63 211.98L57.09 211.20L57.55 210.71L57.94 210.51L58.18 210.55L58.21 210.80L57.98 211.17L57.46 211.60L56.66 212.01L55.56 212.31L54.22 212.43L52.68 212.30L51.00 211.89L49.26 211.15L47.54 210.07L45.93 208.66L44.50 206.96L43.32 205.01L42.44 202.88L41.90 200.63L41.71 198.36L41.87 196.15L42.34 194.06L43.10 192.18L44.07 190.56L45.18 189.24L46.36 188.23L47.52 187.54L48.58 187.14L49.47 186.99L50.14 187.04L50.54 187.21L50.66 187.42L50.49 187.60L50.06 187.66L49.40 187.54L48.57 187.17L47.64 186.52L46.69 185.56L45.81 184.30L45.06 182.74L44.52 180.93L44.26 178.92L44.31 176.78L44.71 174.59L45.46 172.44L46.54 170.40L47.93 168.55L49.56 166.96L51.36 165.67L53.27 164.71L55.20 164.09L57.07 163.80L58.80 163.82L60.33 164.08L61.60 164.53L62.58 165.10L63.26 165.69L63.66 166.24L63.78 166.65L63.69 166.88L63.45 166.87L63.13 166.57L62.80 165.99L62.55 165.11L62.46 163.99L62.60 162.64L63.01 161.15L63.73 159.58L64.78 158.01L66.16 156.53L67.85 155.21L69.78 154.12L71.92 153.33L74.18 152.86L76.49 152.75L78.75 152.99L80.90 153.56L82.86 154.42L84.57 155.51L85.98 156.77L87.07 158.11L87.84 159.45L88.30 160.72L88.49 161.84L88.47 162.74L88.30 163.39L88.06 163.76L87.83 163.83L87.68 163.63L87.70 163.20L87.95 162.57L88.46 161.83L89.27 161.04L90.39 160.29L91.80 159.65L93.48 159.21L95.36 159.02L97.38 159.14L99.47 159.59L101.54 160.39L103.51 161.53L105.31 162.98L106.87 164.68L108.13 166.58L109.06 168.60L109.65 170.66L109.89 172.67L109.82 174.56L109.48 176.25L108.94 177.70L108.26 178.87L107.52 179.73L106.81 180.29L106.20 180.57L105.77 180.61L105.56 180.48L105.62 180.25L105.97 179.98L106.61 179.77L107.51 179.69L108.63 179.82L109.93 180.20L111.32 180.88L112.73 181.89L114.07 183.22L115.27 184.85L116.25 186.75L116.95 188.86L117.33 191.11L117.36 193.41L117.04 195.70L116.38 197.88L115.42 199.89L114.21 201.65L112.82 203.12L111.32 204.27L109.80 205.09L108.33 205.59L107.00 205.81L105.87 205.79L104.98 205.60L104.38 205.31L104.06 205.00L104.03 204.76L104.25 204.66L104.68 204.76L105.25 205.12L105.88 205.76L106.51 206.71L107.04 207.95L107.40 209.45L107.52 211.18L107.35 213.06L106.86 215.02L106.02 216.99L104.84 218.88L103.35 220.60L101.59 222.10L99.63 223.31L97.53 224.19L95.37 224.73L93.24 224.92L91.22 224.78L89.38 224.36L87.77 223.71L86.45 222.90L85.44 222.01L84.73 221.13L84.31 220.32L84.15 219.67L84.19 219.24L84.35 219.06L84.57 219.16L84.77 219.56L84.85 220.22L84.76 221.12L84.43 222.21L83.81 223.40L82.88 224.64L81.63 225.84L80.07 226.91L78.24 227.78L76.20 228.38L73.99 228.68L71.71 228.63L69.44 228.23L67.26 227.49L65.24 226.43L63.45 225.11L61.94 223.59L60.76 221.95L59.91 220.26L59.39 218.61L59.17 217.08L59.21 215.73L59.44 214.62L59.79 213.79L60.19 213.25L60.55 213.00L60.79 213.01L60.85 213.25L60.67 213.65L60.22 214.14L59.46 214.64L58.42 215.08L57.10 215.36L55.55 215.44L53.84 215.23L52.02 214.71L50.18 213.86L48.41 212.67L46.78 211.16L45.36 209.37L44.22 207.37L43.40 205.21L42.93 202.98L42.80 200.76L43.02 198.63L43.53 196.67L44.29 194.94L45.23 193.49L46.27 192.34L47.33 191.51L48.33 190.98L49.20 190.72L49.87 190.69L50.29 190.80L50.43 191.00L50.29 191.20L49.87 191.31L49.20 191.28L48.33 191.02L47.33 190.49L46.27 189.66L45.23 188.51L44.29 187.06L43.53 185.33L43.02 183.37L42.80 181.24L42.93 179.02L43.40 176.79L44.22 174.63L45.36 172.63L46.78 170.84L48.41 169.33L50.18 168.14L52.02 167.29L53.84 166.77L55.55 166.56L57.10 166.64L58.42 166.92L59.46 167.36L60.22 167.86L60.67 168.35L60.85 168.75L60.79 168.99L60.55 169.00L60.19 168.75L59.79 168.21L59.44 167.38L59.21 166.27L59.17 164.92L59.39 163.39L59.91 161.74L60.76 160.05L61.94 158.41L63.45 156.89L65.24 155.57L67.26 154.51L69.44 153.77L71.71 153.37L73.99 153.32L76.20 153.62L78.24 154.22L80.07 155.09L81.63 156.16L82.88 157.36L83.81 158.60L84.43 159.79L84.76 160.88L84.85 161.78L84.77 162.44L84.57 162.84L84.35 162.94L84.19 162.76L84.15 162.33L84.31 161.68L84.73 160.87L85.44 159.99L86.45 159.10L87.77 158.29L89.38 157.64L91.22 157.22L93.24 157.08L95.37 157.27L97.53 157.81L99.63 158.69L101.59 159.90L103.35 161.40L104.84 163.12L106.02 165.01L106.86 166.98L107.35 168.94L107.52 170.82L107.40 172.55L107.04 174.05L106.51 175.29L105.88 176.24L105.25 176.88L104.68 177.24L104.25 177.34L104.03 177.24L104.06 177.00L104.38 176.69L104.98 176.40L105.87 176.21L107.00 176.19L108.33 176.41L109.80 176.91L111.32 177.73L112.82 178.88L114.21 180.35L115.42 182.11L116.38 184.12L117.04 186.30L117.36 188.59L117.33 190.89L116.95 193.14L116.25 195.25L115.27 197.15L114.07 198.78L112.73 200.11L111.32 201.12L109.93 201.80L108.63 202.18L107.51 202.31L106.61 202.23L105.97 202.02L105.62 201.75L105.56 201.52L105.77 201.39L106.20 201.43L106.81 201.71L107.52 202.27L108.26 203.13L108.94 204.30L109.48 205.75L109.82 207.44L109.89 209.33L109.65 211.34L109.06 213.40L108.13 215.42L106.87 217.32L105.31 219.02L103.51 220.47L101.54 221.61L99.47 222.41L97.38 222.86L95.36 222.98L93.48 222.79L91.80 222.35L90.39 221.71L89.27 220.96L88.46 220.17L87.95 219.43L87.70 218.80L87.68 218.37L87.83 218.17L88.06 218.24L88.30 218.61L88.47 219.26L88.49 220.16L88.30 221.28L87.84 222.55L87.07 223.89L85.98 225.23L84.57 226.49L82.86 227.58L80.90 228.44L78.75 229.01L76.49 229.25L74.18 229.14L71.92 228.67L69.78 227.88L67.85 226.79L66.16 225.47L64.78 223.99L63.73 222.42L63.01 220.85L62.60 219.36L62.46 218.01L62.55 216.89L62.80 216.01L63.13 215.43L63.45 215.13L63.69 215.12L63.78 215.35L63.66 215.76L63.26 216.31L62.58 216.90L61.60 217.47L60.33 217.92L58.80 218.18L57.07 218.20L55.20 217.91L53.27 217.29L51.36 216.33L49.56 215.04L47.93 213.45L46.54 211.60L45.46 209.56L44.71 207.41L44.31 205.22L44.26 203.08L44.52 201.07L45.06 199.26L45.81 197.70L46.69 196.44L47.64 195.48L48.57 194.83L49.40 194.46L50.06 194.34L50.49 194.40L50.66 194.58L50.54 194.79L50.14 194.96L49.47 195.01L48.58 194.86L47.52 194.46L46.36 193.77L45.18 192.76L44.07 191.44L43.10 189.82L42.34 187.94L41.87 185.85L41.71 183.64L41.90 181.37L42.44 179.12L43.32 176.99L44.50 175.04L45.93 173.34L47.54 171.93L49.26 170.85L51.00 170.11L52.68 169.70L54.22 169.57L55.56 169.69L56.66 169.99L57.46 170.40L57.98 170.83L58.21 171.20L58.18 171.45L57.94 171.49L57.55 171.29L57.09 170.80L56.63 170.02L56.26 168.95L56.06 167.61L56.09 166.07L56.40 164.36L57.03 162.58L57.99 160.80L59.29 159.11L60.90 157.57L62.77 156.27L64.85 155.26L67.05 154.58L69.31 154.24L71.53 154.26L73.64 154.61L75.57 155.24L77.24 156.11L78.64 157.14L79.71 158.25L80.48 159.36L80.94 160.39L81.15 161.28L81.14 161.95L81.00 162.36L80.79 162.49L80.61 162.33L80.52 161.91L80.60 161.24L80.91 160.39L81.50 159.42L82.40 158.42L83.61 157.45L85.11 156.60L86.89 155.96L88.88 155.57L91.01 155.49L93.22 155.75L95.42 156.36L97.52 157.31L99.45 158.58L101.14 160.10L102.55 161.83L103.62 163.67L104.36 165.56L104.76 167.41L104.86 169.13L104.69 170.67L104.32 171.97L103.82 172.99L103.27 173.71L102.75 174.13L102.34 174.28L102.11 174.21L102.11 173.97L102.38 173.62L102.95 173.26L103.80 172.96L104.92 172.80L106.27 172.85L107.79 173.16L109.40 173.79L111.03 174.74L112.60 176.02L114.02 177.62L115.23 179.49L116.15 181.57L116.76 183.80L117.02 186.09L116.92 188.37L116.49 190.55L115.75 192.56L114.77 194.33L113.60 195.81L112.33 196.99L111.04 197.84L109.80 198.38L108.70 198.64L107.80 198.68L107.14 198.55L106.76 198.33L106.67 198.10L106.86 197.95L107.29 197.94L107.93 198.14L108.71 198.61L109.55 199.37L110.37 200.44L111.09 201.81L111.64 203.45L111.95 205.32L111.95 207.34L111.63 209.46L110.96 211.57L109.95 213.62L108.62 215.50L107.01 217.16L105.20 218.54L103.24 219.60L101.23 220.31L99.24 220.68L97.35 220.73L95.63 220.50L94.15 220.04L92.95 219.44L92.04 218.76L91.44 218.08L91.12 217.49L91.05 217.06L91.16 216.85L91.40 216.89L91.69 217.23L91.94 217.85L92.07 218.74L92.02 219.87L91.72 221.19L91.13 222.62L90.21 224.09L88.97 225.51L87.41 226.81L85.58 227.91L83.52 228.74L81.30 229.26L79.00 229.44L76.70 229.26L74.48 228.74L72.42 227.91L70.59 226.81L69.03 225.51L67.79 224.09L66.87 222.62L66.28 221.19L65.98 219.87L65.93 218.74L66.06 217.85L66.31 217.23L66.60 216.89L66.84 216.85L66.95 217.06L66.88 217.49L66.56 218.08L65.96 218.76L65.05 219.44L63.85 220.04L62.37 220.50L60.65 220.73L58.76 220.68L56.77 220.31L54.76 219.60L52.80 218.54L50.99 217.16L49.38 215.50L48.05 213.62L47.04 211.57L46.37 209.46L46.05 207.34L46.05 205.32L46.36 203.45L46.91 201.81L47.63 200.44L48.45 199.37L49.29 198.61L50.07 198.14L50.71 197.94L51.14 197.95L51.33 198.10L51.24 198.33L50.86 198.55L50.20 198.68L49.30 198.64L48.20 198.38L46.96 197.84L45.67 196.99L44.40 195.81L43.23 194.33L42.25 192.56L41.51 190.55L41.08 188.37L40.98 186.09L41.24 183.80L41.85 181.57L42.77 179.49L43.98 177.62L45.40 176.02L46.97 174.74L48.60 173.79L50.21 173.16L51.73 172.85L53.08 172.80L54.20 172.96L55.05 173.26L55.62 173.62L55.89 173.97L55.89 174.21L55.66 174.28L55.25 174.13L54.73 173.71L54.18 172.99L53.68 171.97L53.31 170.67L53.14 169.13L53.24 167.41L53.64 165.56L54.38 163.67L55.45 161.83L56.86 160.10L58.55 158.58L60.48 157.31L62.58 156.36L64.78 155.75L66.99 155.49L69.12 155.57L71.11 155.96L72.89 156.60L74.39 157.45L75.60 158.42L76.50 159.42L77.09 160.39L77.40 161.24L77.48 161.91L77.39 162.33L77.21 162.49L77.00 162.36L76.86 161.95L76.85 161.28L77.06 160.39L77.52 159.36L78.29 158.25L79.36 157.14L80.76 156.11L82.43 155.24L84.36 154.61L86.47 154.26L88.69 154.24L90.95 154.58L93.15 155.26L95.23 156.27L97.10 157.57L98.71 159.11L100.01 160.80L100.97 162.58L101.60 164.36L101.91 166.07L101.94 167.61L101.74 168.95L101.37 170.02L100.91 170.80L100.45 171.29L100.06 171.49L99.82 171.45L99.79 171.20L100.02 170.83L100.54 170.40L101.34 169.99L102.44 169.69L103.78 169.57L105.32 169.70L107.00 170.11L108.74 170.85L110.46 171.93L112.07 173.34L113.50 175.04L114.68 176.99L115.56 179.12L116.10 181.37L116.29 183.64L116.13 185.85L115.66 187.94L114.90 189.82L113.93 191.44L112.82 192.76L111.64 193.77L110.48 194.46L109.42 194.86L108.53 195.01L107.86 194.96L107.46 194.79L107.34 194.58L107.51 194.40L107.94 194.34L108.60 194.46L109.43 194.83L110.36 195.48L111.31 196.44L112.19 197.70L112.94 199.26L113.48 201.07L113.74 203.08L113.69 205.22L113.29 207.41L112.54 209.56L111.46 211.60L110.07 213.45L108.44 215.04L106.64 216.33L104.73 217.29L102.80 217.91L100.93 218.20L99.20 218.18L97.67 217.92L96.40 217.47L95.42 216.90L94.74 216.31L94.34 215.76L94.22 215.35L94.31 215.12L94.55 215.13L94.87 215.43L95.20 216.01L95.45 216.89L95.54 218.01L95.40 219.36L94.99 220.85L94.27 222.42L93.22 223.99L91.84 225.47L90.15 226.79L88.22 227.88L86.08 228.67L83.82 229.14L81.51 229.25L79.25 229.01L77.10 228.44L75.14 227.58L73.43 226.49L72.02 225.23L70.93 223.89L70.16 222.55L69.70 221.28L69.51 220.16L69.53 219.26L69.70 218.61L69.94 218.24L70.17 218.17L70.32 218.37L70.30 218.80L70.05 219.43L69.54 220.17L68.73 220.96L67.61 221.71L66.20 222.35L64.52 222.79L62.64 222.98L60.62 222.86L58.53 222.41L56.46 221.61L54.49 220.47L52.69 219.02L51.13 217.32L49.87 215.42L48.94 213.40L48.35 211.34L48.11 209.33L48.18 207.44L48.52 205.75L49.06 204.30L49.74 203.13L50.48 202.27L51.19 201.71L51.80 201.43L52.23 201.39L52.44 201.52L52.38 201.75L52.03 202.02L51.39 202.23L50.49 202.31L49.37 202.18L48.07 201.80L46.68 201.12L45.27 200.11L43.93 198.78L42.73 197.15L41.75 195.25L41.05 193.14L40.67 190.89L40.64 188.59L40.96 186.30L41.62 184.12L42.58 182.11L43.79 180.35L45.18 178.88L46.68 177.73L48.20 176.91L49.67 176.41L51.00 176.19L52.13 176.21L53.02 176.40L53.62 176.69L53.94 177.00L53.97 177.24L53.75 177.34L53.32 177.24L52.75 176.88L52.12 176.24L51.49 175.29L50.96 174.05L50.60 172.55L50.48 170.82L50.65 168.94L51.14 166.98L51.98 165.01L53.16 163.12L54.65 161.40L56.41 159.90L58.37 158.69L60.47 157.81L62.63 157.27L64.76 157.08L66.78 157.22L68.62 157.64L70.23 158.29L71.55 159.10L72.56 159.99L73.27 160.87L73.69 161.68L73.85 162.33L73.81 162.76L73.65 162.94L73.43 162.84L73.23 162.44L73.15 161.78L73.24 160.88L73.57 159.79L74.19 158.60L75.12 157.36L76.37 156.16L77.93 155.09L79.76 154.22L81.80 153.62L84.01 153.32L86.29 153.37L88.56 153.77L90.74 154.51L92.76 155.57L94.55 156.89L96.06 158.41L97.24 160.05L98.09 161.74L98.61 163.39L98.83 164.92L98.79 166.27L98.56 167.38L98.21 168.21L97.81 168.75L97.45 169.00L97.21 168.99L97.15 168.75L97.33 168.35L97.78 167.86L98.54 167.36L99.58 166.92L100.90 166.64L102.45 166.56L104.16 166.77L105.98 167.29L107.82 168.14L109.59 169.33L111.22 170.84L112.64 172.63L113.78 174.63L114.60 176.79L115.07 179.02L115.20 181.24L114.98 183.37L114.47 185.33L113.71 187.06L112.77 188.51L111.73 189.66L110.67 190.49L109.67 191.02L108.80 191.28L108.13 191.31L107.71 191.20L107.57 191.00Z" fill="none" stroke="#D2C38E" stroke-width="0.070" transform="rotate(0.00 79.00 191.00)"/><path d="M107.57 191.00L107.71 190.80L108.13 190.69L108.80 190.72L109.67 190.98L110.67 191.51L111.73 192.34L112.77 193.49L113.71 194.94L114.47 196.67L114.98 198.63L115.20 200.76L115.07 202.98L114.60 205.21L113.78 207.37L112.64 209.37L111.22 211.16L109.59 212.67L107.82 213.86L105.98 214.71L104.16 215.23L102.45 215.44L100.90 215.36L99.58 215.08L98.54 214.64L97.78 214.14L97.33 213.65L97.15 213.25L97.21 213.01L97.45 213.00L97.81 213.25L98.21 213.79L98.56 214.62L98.79 215.73L98.83 217.08L98.61 218.61L98.09 220.26L97.24 221.95L96.06 223.59L94.55 225.11L92.76 226.43L90.74 227.49L88.56 228.23L86.29 228.63L84.01 228.68L81.80 228.38L79.76 227.78L77.93 226.91L76.37 225.84L75.12 224.64L74.19 223.40L73.57 222.21L73.24 221.12L73.15 220.22L73.23 219.56L73.43 219.16L73.65 219.06L73.81 219.24L73.85 219.67L73.69 220.32L73.27 221.13L72.56 222.01L71.55 222.90L70.23 223.71L68.62 224.36L66.78 224.78L64.76 224.92L62.63 224.73L60.47 224.19L58.37 223.31L56.41 222.10L54.65 220.60L53.16 218.88L51.98 216.99L51.14 215.02L50.65 213.06L50.48 211.18L50.60 209.45L50.96 207.95L51.49 206.71L52.12 205.76L52.75 205.12L53.32 204.76L53.75 204.66L53.97 204.76L53.94 205.00L53.62 205.31L53.02 205.60L52.13 205.79L51.00 205.81L49.67 205.59L48.20 205.09L46.68 204.27L45.18 203.12L43.79 201.65L42.58 199.89L41.62 197.88L40.96 195.70L40.64 193.41L40.67 191.11L41.05 188.86L41.75 186.75L42.73 184.85L43.93 183.22L45.27 181.89L46.68 180.88L48.07 180.20L49.37 179.82L50.49 179.69L51.39 179.77L52.03 179.98L52.38 180.25L52.44 180.48L52.23 180.61L51.80 180.57L51.19 180.29L50.48 179.73L49.74 178.87L49.06 177.70L48.52 176.25L48.18 174.56L48.11 172.67L48.35 170.66L48.94 168.60L49.87 166.58L51.13 164.68L52.69 162.98L54.49 161.53L56.46 160.39L58.53 159.59L60.62 159.14L62.64 159.02L64.52 159.21L66.20 159.65L67.61 160.29L68.73 161.04L69.54 161.83L70.05 162.57L70.30 163.20L70.32 163.63L70.17 163.83L69.94 163.76L69.70 163.39L69.53 162.74L69.51 161.84L69.70 160.72L70.16 159.45L70.93 158.11L72.02 156.77L73.43 155.51L75.14 154.42L77.10 153.56L79.25 152.99L81.51 152.75L83.82 152.86L86.08 153.33L88.22 154.12L90.15 155.21L91.84 156.53L93.22 158.01L94.27 159.58L94.99 161.15L95.40 162.64L95.54 163.99L95.45 165.11L95.20 165.99L94.87 166.57L94.55 166.87L94.31 166.88L94.22 166.65L94.34 166.24L94.74 165.69L95.42 165.10L96.40 164.53L97.67 164.08L99.20 163.82L100.93 163.80L102.80 164.09L104.73 164.71L106.64 165.67L108.44 166.96L110.07 168.55L111.46 170.40L112.54 172.44L113.29 174.59L113.69 176.78L113.74 178.92L113.48 180.93L112.94 182.74L112.19 184.30L111.31 185.56L110.36 186.52L109.43 187.17L108.60 187.54L107.94 187.66L107.51 187.60L107.34 187.42L107.46 187.21L107.86 187.04L108.53 186.99L109.42 187.14L110.48 187.54L111.64 188.23L112.82 189.24L113.93 190.56L114.90 192.18L115.66 194.06L116.13 196.15L116.29 198.36L116.10 200.63L115.56 202.88L114.68 205.01L113.50 206.96L112.07 208.66L110.46 210.07L108.74 211.15L107.00 211.89L105.32 212.30L103.78 212.43L102.44 212.31L101.34 212.01L100.54 211.60L100.02 211.17L99.79 210.80L99.82 210.55L100.06 210.51L100.45 210.71L100.91 211.20L101.37 211.98L101.74 213.05L101.94 214.39L101.91 215.93L101.60 217.64L100.97 219.42L100.01 221.20L98.71 222.89L97.10 224.43L95.23 225.73L93.15 226.74L90.95 227.42L88.69 227.76L86.47 227.74L84.36 227.39L82.43 226.76L80.76 225.89L79.36 224.86L78.29 223.75L77.52 222.64L77.06 221.61L76.85 220.72L76.86 220.05L77.00 219.64L77.21 219.51L77.39 219.67L77.48 220.09L77.40 220.76L77.09 221.61L76.50 222.58L75.60 223.58L74.39 224.55L72.89 225.40L71.11 226.04L69.12 226.43L66.99 226.51L64.78 226.25L62.58 225.64L60.48 224.69L58.55 223.42L56.86 221.90L55.45 220.17L54.38 218.33L53.64 216.44L53.24 214.59L53.14 212.87L53.31 211.33L53.68 210.03L54.18 209.01L54.73 208.29L55.25 207.87L55.66 207.72L55.89 207.79L55.89 208.03L55.62 208.38L55.05 208.74L54.20 209.04L53.08 209.20L51.73 209.15L50.21 208.84L48.60 208.21L46.97 207.26L45.40 205.98L43.98 204.38L42.77 202.51L41.85 200.43L41.24 198.20L40.98 195.91L41.08 193.63L41.51 191.45L42.25 189.44L43.23 187.67L44.40 186.19L45.67 185.01L46.96 184.16L48.20 183.62L49.30 183.36L50.20 183.32L50.86 183.45L51.24 183.67L51.33 183.90L51.14 184.05L50.71 184.06L50.07 183.86L49.29 183.39L48.45 182.63L47.63 181.56L46.91 180.19L46.36 178.55L46.05 176.68L46.05 174.66L46.37 172.54L47.04 170.43L48.05 168.38L49.38 166.50L50.99 164.84L52.80 163.46L54.76 162.40L56.77 161.69L58.76 161.32L60.65 161.27L62.37 161.50L63.85 161.96L65.05 162.56L65.96 163.24L66.56 163.92L66.88 164.51L66.95 164.94L66.84 165.15L66.60 165.11L66.31 164.77L66.06 164.15L65.93 163.26L65.98 162.13L66.28 160.81L66.87 159.38L67.79 157.91L69.03 156.49L70.59 155.19L72.42 154.09L74.48 153.26L76.70 152.74L79.00 152.56L81.30 152.74L83.52 153.26L85.58 154.09L87.41 155.19L88.97 156.49L90.21 157.91L91.13 159.38L91.72 160.81L92.02 162.13L92.07 163.26L91.94 164.15L91.69 164.77L91.40 165.11L91.16 165.15L91.05 164.94L91.12 164.51L91.44 163.92L92.04 163.24L92.95 162.56L94.15 161.96L95.63 161.50L97.35 161.27L99.24 161.32L101.23 161.69L103.24 162.40L105.20 163.46L107.01 164.84L108.62 166.50L109.95 168.38L110.96 170.43L111.63 172.54L111.95 174.66L111.95 176.68L111.64 178.55L111.09 180.19L110.37 181.56L109.55 182.63L108.71 183.39L107.93 183.86L107.29 184.06L106.86 184.05L106.67 183.90L106.76 183.67L107.14 183.45L107.80 183.32L108.70 183.36L109.80 183.62L111.04 184.16L112.33 185.01L113.60 186.19L114.77 187.67L115.75 189.44L116.49 191.45L116.92 193.63L117.02 195.91L116.76 198.20L116.15 200.43L115.23 202.51L114.02 204.38L112.60 205.98L111.03 207.26L109.40 208.21L107.79 208.84L106.27 209.15L104.92 209.20L103.80 209.04L102.95 208.74L102.38 208.38L102.11 208.03L102.11 207.79L102.34 207.72L102.75 207.87L103.27 208.29L103.82 209.01L104.32 210.03L104.69 211.33L104.86 212.87L104.76 214.59L104.36 216.44L103.62 218.33L102.55 220.17L101.14 221.90L99.45 223.42L97.52 224.69L95.42 225.64L93.22 226.25L91.01 226.51L88.88 226.43L86.89 226.04L85.11 225.40L83.61 224.55L82.40 223.58L81.50 222.58L80.91 221.61L80.60 220.76L80.52 220.09L80.61 219.67L80.79 219.51L81.00 219.64L81.14 220.05L81.15 220.72L80.94 221.61L80.48 222.64L79.71 223.75L78.64 224.86L77.24 225.89L75.57 226.76L73.64 227.39L71.53 227.74L69.31 227.76L67.05 227.42L64.85 226.74L62.77 225.73L60.90 224.43L59.29 222.89L57.99 221.20L57.03 219.42L56.40 217.64L56.09 215.93L56.06 214.39L56.26 213.05L56.63 211.98L57.09 211.20L57.55 210.71L57.94 210.51L58.18 210.55L58.21 210.80L57.98 211.17L57.46 211.60L56.66 212.01L55.56 212.31L54.22 212.43L52.68 212.30L51.00 211.89L49.26 211.15L47.54 210.07L45.93 208.66L44.50 206.96L43.32 205.01L42.44 202.88L41.90 200.63L41.71 198.36L41.87 196.15L42.34 194.06L43.10 192.18L44.07 190.56L45.18 189.24L46.36 188.23L47.52 187.54L48.58 187.14L49.47 186.99L50.14 187.04L50.54 187.21L50.66 187.42L50.49 187.60L50.06 187.66L49.40 187.54L48.57 187.17L47.64 186.52L46.69 185.56L45.81 184.30L45.06 182.74L44.52 180.93L44.26 178.92L44.31 176.78L44.71 174.59L45.46 172.44L46.54 170.40L47.93 168.55L49.56 166.96L51.36 165.67L53.27 164.71L55.20 164.09L57.07 163.80L58.80 163.82L60.33 164.08L61.60 164.53L62.58 165.10L63.26 165.69L63.66 166.24L63.78 166.65L63.69 166.88L63.45 166.87L63.13 166.57L62.80 165.99L62.55 165.11L62.46 163.99L62.60 162.64L63.01 161.15L63.73 159.58L64.78 158.01L66.16 156.53L67.85 155.21L69.78 154.12L71.92 153.33L74.18 152.86L76.49 152.75L78.75 152.99L80.90 153.56L82.86 154.42L84.57 155.51L85.98 156.77L87.07 158.11L87.84 159.45L88.30 160.72L88.49 161.84L88.47 162.74L88.30 163.39L88.06 163.76L87.83 163.83L87.68 163.63L87.70 163.20L87.95 162.57L88.46 161.83L89.27 161.04L90.39 160.29L91.80 159.65L93.48 159.21L95.36 159.02L97.38 159.14L99.47 159.59L101.54 160.39L103.51 161.53L105.31 162.98L106.87 164.68L108.13 166.58L109.06 168.60L109.65 170.66L109.89 172.67L109.82 174.56L109.48 176.25L108.94 177.70L108.26 178.87L107.52 179.73L106.81 180.29L106.20 180.57L105.77 180.61L105.56 180.48L105.62 180.25L105.97 179.98L106.61 179.77L107.51 179.69L108.63 179.82L109.93 180.20L111.32 180.88L112.73 181.89L114.07 183.22L115.27 184.85L116.25 186.75L116.95 188.86L117.33 191.11L117.36 193.41L117.04 195.70L116.38 197.88L115.42 199.89L114.21 201.65L112.82 203.12L111.32 204.27L109.80 205.09L108.33 205.59L107.00 205.81L105.87 205.79L104.98 205.60L104.38 205.31L104.06 205.00L104.03 204.76L104.25 204.66L104.68 204.76L105.25 205.12L105.88 205.76L106.51 206.71L107.04 207.95L107.40 209.45L107.52 211.18L107.35 213.06L106.86 215.02L106.02 216.99L104.84 218.88L103.35 220.60L101.59 222.10L99.63 223.31L97.53 224.19L95.37 224.73L93.24 224.92L91.22 224.78L89.38 224.36L87.77 223.71L86.45 222.90L85.44 222.01L84.73 221.13L84.31 220.32L84.15 219.67L84.19 219.24L84.35 219.06L84.57 219.16L84.77 219.56L84.85 220.22L84.76 221.12L84.43 222.21L83.81 223.40L82.88 224.64L81.63 225.84L80.07 226.91L78.24 227.78L76.20 228.38L73.99 228.68L71.71 228.63L69.44 228.23L67.26 227.49L65.24 226.43L63.45 225.11L61.94 223.59L60.76 221.95L59.91 220.26L59.39 218.61L59.17 217.08L59.21 215.73L59.44 214.62L59.79 213.79L60.19 213.25L60.55 213.00L60.79 213.01L60.85 213.25L60.67 213.65L60.22 214.14L59.46 214.64L58.42 215.08L57.10 215.36L55.55 215.44L53.84 215.23L52.02 214.71L50.18 213.86L48.41 212.67L46.78 211.16L45.36 209.37L44.22 207.37L43.40 205.21L42.93 202.98L42.80 200.76L43.02 198.63L43.53 196.67L44.29 194.94L45.23 193.49L46.27 192.34L47.33 191.51L48.33 190.98L49.20 190.72L49.87 190.69L50.29 190.80L50.43 191.00L50.29 191.20L49.87 191.31L49.20 191.28L48.33 191.02L47.33 190.49L46.27 189.66L45.23 188.51L44.29 187.06L43.53 185.33L43.02 183.37L42.80 181.24L42.93 179.02L43.40 176.79L44.22 174.63L45.36 172.63L46.78 170.84L48.41 169.33L50.18 168.14L52.02 167.29L53.84 166.77L55.55 166.56L57.10 166.64L58.42 166.92L59.46 167.36L60.22 167.86L60.67 168.35L60.85 168.75L60.79 168.99L60.55 169.00L60.19 168.75L59.79 168.21L59.44 167.38L59.21 166.27L59.17 164.92L59.39 163.39L59.91 161.74L60.76 160.05L61.94 158.41L63.45 156.89L65.24 155.57L67.26 154.51L69.44 153.77L71.71 153.37L73.99 153.32L76.20 153.62L78.24 154.22L80.07 155.09L81.63 156.16L82.88 157.36L83.81 158.60L84.43 159.79L84.76 160.88L84.85 161.78L84.77 162.44L84.57 162.84L84.35 162.94L84.19 162.76L84.15 162.33L84.31 161.68L84.73 160.87L85.44 159.99L86.45 159.10L87.77 158.29L89.38 157.64L91.22 157.22L93.24 157.08L95.37 157.27L97.53 157.81L99.63 158.69L101.59 159.90L103.35 161.40L104.84 163.12L106.02 165.01L106.86 166.98L107.35 168.94L107.52 170.82L107.40 172.55L107.04 174.05L106.51 175.29L105.88 176.24L105.25 176.88L104.68 177.24L104.25 177.34L104.03 177.24L104.06 177.00L104.38 176.69L104.98 176.40L105.87 176.21L107.00 176.19L108.33 176.41L109.80 176.91L111.32 177.73L112.82 178.88L114.21 180.35L115.42 182.11L116.38 184.12L117.04 186.30L117.36 188.59L117.33 190.89L116.95 193.14L116.25 195.25L115.27 197.15L114.07 198.78L112.73 200.11L111.32 201.12L109.93 201.80L108.63 202.18L107.51 202.31L106.61 202.23L105.97 202.02L105.62 201.75L105.56 201.52L105.77 201.39L106.20 201.43L106.81 201.71L107.52 202.27L108.26 203.13L108.94 204.30L109.48 205.75L109.82 207.44L109.89 209.33L109.65 211.34L109.06 213.40L108.13 215.42L106.87 217.32L105.31 219.02L103.51 220.47L101.54 221.61L99.47 222.41L97.38 222.86L95.36 222.98L93.48 222.79L91.80 222.35L90.39 221.71L89.27 220.96L88.46 220.17L87.95 219.43L87.70 218.80L87.68 218.37L87.83 218.17L88.06 218.24L88.30 218.61L88.47 219.26L88.49 220.16L88.30 221.28L87.84 222.55L87.07 223.89L85.98 225.23L84.57 226.49L82.86 227.58L80.90 228.44L78.75 229.01L76.49 229.25L74.18 229.14L71.92 228.67L69.78 227.88L67.85 226.79L66.16 225.47L64.78 223.99L63.73 222.42L63.01 220.85L62.60 219.36L62.46 218.01L62.55 216.89L62.80 216.01L63.13 215.43L63.45 215.13L63.69 215.12L63.78 215.35L63.66 215.76L63.26 216.31L62.58 216.90L61.60 217.47L60.33 217.92L58.80 218.18L57.07 218.20L55.20 217.91L53.27 217.29L51.36 216.33L49.56 215.04L47.93 213.45L46.54 211.60L45.46 209.56L44.71 207.41L44.31 205.22L44.26 203.08L44.52 201.07L45.06 199.26L45.81 197.70L46.69 196.44L47.64 195.48L48.57 194.83L49.40 194.46L50.06 194.34L50.49 194.40L50.66 194.58L50.54 194.79L50.14 194.96L49.47 195.01L48.58 194.86L47.52 194.46L46.36 193.77L45.18 192.76L44.07 191.44L43.10 189.82L42.34 187.94L41.87 185.85L41.71 183.64L41.90 181.37L42.44 179.12L43.32 176.99L44.50 175.04L45.93 173.34L47.54 171.93L49.26 170.85L51.00 170.11L52.68 169.70L54.22 169.57L55.56 169.69L56.66 169.99L57.46 170.40L57.98 170.83L58.21 171.20L58.18 171.45L57.94 171.49L57.55 171.29L57.09 170.80L56.63 170.02L56.26 168.95L56.06 167.61L56.09 166.07L56.40 164.36L57.03 162.58L57.99 160.80L59.29 159.11L60.90 157.57L62.77 156.27L64.85 155.26L67.05 154.58L69.31 154.24L71.53 154.26L73.64 154.61L75.57 155.24L77.24 156.11L78.64 157.14L79.71 158.25L80.48 159.36L80.94 160.39L81.15 161.28L81.14 161.95L81.00 162.36L80.79 162.49L80.61 162.33L80.52 161.91L80.60 161.24L80.91 160.39L81.50 159.42L82.40 158.42L83.61 157.45L85.11 156.60L86.89 155.96L88.88 155.57L91.01 155.49L93.22 155.75L95.42 156.36L97.52 157.31L99.45 158.58L101.14 160.10L102.55 161.83L103.62 163.67L104.36 165.56L104.76 167.41L104.86 169.13L104.69 170.67L104.32 171.97L103.82 172.99L103.27 173.71L102.75 174.13L102.34 174.28L102.11 174.21L102.11 173.97L102.38 173.62L102.95 173.26L103.80 172.96L104.92 172.80L106.27 172.85L107.79 173.16L109.40 173.79L111.03 174.74L112.60 176.02L114.02 177.62L115.23 179.49L116.15 181.57L116.76 183.80L117.02 186.09L116.92 188.37L116.49 190.55L115.75 192.56L114.77 194.33L113.60 195.81L112.33 196.99L111.04 197.84L109.80 198.38L108.70 198.64L107.80 198.68L107.14 198.55L106.76 198.33L106.67 198.10L106.86 197.95L107.29 197.94L107.93 198.14L108.71 198.61L109.55 199.37L110.37 200.44L111.09 201.81L111.64 203.45L111.95 205.32L111.95 207.34L111.63 209.46L110.96 211.57L109.95 213.62L108.62 215.50L107.01 217.16L105.20 218.54L103.24 219.60L101.23 220.31L99.24 220.68L97.35 220.73L95.63 220.50L94.15 220.04L92.95 219.44L92.04 218.76L91.44 218.08L91.12 217.49L91.05 217.06L91.16 216.85L91.40 216.89L91.69 217.23L91.94 217.85L92.07 218.74L92.02 219.87L91.72 221.19L91.13 222.62L90.21 224.09L88.97 225.51L87.41 226.81L85.58 227.91L83.52 228.74L81.30 229.26L79.00 229.44L76.70 229.26L74.48 228.74L72.42 227.91L70.59 226.81L69.03 225.51L67.79 224.09L66.87 222.62L66.28 221.19L65.98 219.87L65.93 218.74L66.06 217.85L66.31 217.23L66.60 216.89L66.84 216.85L66.95 217.06L66.88 217.49L66.56 218.08L65.96 218.76L65.05 219.44L63.85 220.04L62.37 220.50L60.65 220.73L58.76 220.68L56.77 220.31L54.76 219.60L52.80 218.54L50.99 217.16L49.38 215.50L48.05 213.62L47.04 211.57L46.37 209.46L46.05 207.34L46.05 205.32L46.36 203.45L46.91 201.81L47.63 200.44L48.45 199.37L49.29 198.61L50.07 198.14L50.71 197.94L51.14 197.95L51.33 198.10L51.24 198.33L50.86 198.55L50.20 198.68L49.30 198.64L48.20 198.38L46.96 197.84L45.67 196.99L44.40 195.81L43.23 194.33L42.25 192.56L41.51 190.55L41.08 188.37L40.98 186.09L41.24 183.80L41.85 181.57L42.77 179.49L43.98 177.62L45.40 176.02L46.97 174.74L48.60 173.79L50.21 173.16L51.73 172.85L53.08 172.80L54.20 172.96L55.05 173.26L55.62 173.62L55.89 173.97L55.89 174.21L55.66 174.28L55.25 174.13L54.73 173.71L54.18 172.99L53.68 171.97L53.31 170.67L53.14 169.13L53.24 167.41L53.64 165.56L54.38 163.67L55.45 161.83L56.86 160.10L58.55 158.58L60.48 157.31L62.58 156.36L64.78 155.75L66.99 155.49L69.12 155.57L71.11 155.96L72.89 156.60L74.39 157.45L75.60 158.42L76.50 159.42L77.09 160.39L77.40 161.24L77.48 161.91L77.39 162.33L77.21 162.49L77.00 162.36L76.86 161.95L76.85 161.28L77.06 160.39L77.52 159.36L78.29 158.25L79.36 157.14L80.76 156.11L82.43 155.24L84.36 154.61L86.47 154.26L88.69 154.24L90.95 154.58L93.15 155.26L95.23 156.27L97.10 157.57L98.71 159.11L100.01 160.80L100.97 162.58L101.60 164.36L101.91 166.07L101.94 167.61L101.74 168.95L101.37 170.02L100.91 170.80L100.45 171.29L100.06 171.49L99.82 171.45L99.79 171.20L100.02 170.83L100.54 170.40L101.34 169.99L102.44 169.69L103.78 169.57L105.32 169.70L107.00 170.11L108.74 170.85L110.46 171.93L112.07 173.34L113.50 175.04L114.68 176.99L115.56 179.12L116.10 181.37L116.29 183.64L116.13 185.85L115.66 187.94L114.90 189.82L113.93 191.44L112.82 192.76L111.64 193.77L110.48 194.46L109.42 194.86L108.53 195.01L107.86 194.96L107.46 194.79L107.34 194.58L107.51 194.40L107.94 194.34L108.60 194.46L109.43 194.83L110.36 195.48L111.31 196.44L112.19 197.70L112.94 199.26L113.48 201.07L113.74 203.08L113.69 205.22L113.29 207.41L112.54 209.56L111.46 211.60L110.07 213.45L108.44 215.04L106.64 216.33L104.73 217.29L102.80 217.91L100.93 218.20L99.20 218.18L97.67 217.92L96.40 217.47L95.42 216.90L94.74 216.31L94.34 215.76L94.22 215.35L94.31 215.12L94.55 215.13L94.87 215.43L95.20 216.01L95.45 216.89L95.54 218.01L95.40 219.36L94.99 220.85L94.27 222.42L93.22 223.99L91.84 225.47L90.15 226.79L88.22 227.88L86.08 228.67L83.82 229.14L81.51 229.25L79.25 229.01L77.10 228.44L75.14 227.58L73.43 226.49L72.02 225.23L70.93 223.89L70.16 222.55L69.70 221.28L69.51 220.16L69.53 219.26L69.70 218.61L69.94 218.24L70.17 218.17L70.32 218.37L70.30 218.80L70.05 219.43L69.54 220.17L68.73 220.96L67.61 221.71L66.20 222.35L64.52 222.79L62.64 222.98L60.62 222.86L58.53 222.41L56.46 221.61L54.49 220.47L52.69 219.02L51.13 217.32L49.87 215.42L48.94 213.40L48.35 211.34L48.11 209.33L48.18 207.44L48.52 205.75L49.06 204.30L49.74 203.13L50.48 202.27L51.19 201.71L51.80 201.43L52.23 201.39L52.44 201.52L52.38 201.75L52.03 202.02L51.39 202.23L50.49 202.31L49.37 202.18L48.07 201.80L46.68 201.12L45.27 200.11L43.93 198.78L42.73 197.15L41.75 195.25L41.05 193.14L40.67 190.89L40.64 188.59L40.96 186.30L41.62 184.12L42.58 182.11L43.79 180.35L45.18 178.88L46.68 177.73L48.20 176.91L49.67 176.41L51.00 176.19L52.13 176.21L53.02 176.40L53.62 176.69L53.94 177.00L53.97 177.24L53.75 177.34L53.32 177.24L52.75 176.88L52.12 176.24L51.49 175.29L50.96 174.05L50.60 172.55L50.48 170.82L50.65 168.94L51.14 166.98L51.98 165.01L53.16 163.12L54.65 161.40L56.41 159.90L58.37 158.69L60.47 157.81L62.63 157.27L64.76 157.08L66.78 157.22L68.62 157.64L70.23 158.29L71.55 159.10L72.56 159.99L73.27 160.87L73.69 161.68L73.85 162.33L73.81 162.76L73.65 162.94L73.43 162.84L73.23 162.44L73.15 161.78L73.24 160.88L73.57 159.79L74.19 158.60L75.12 157.36L76.37 156.16L77.93 155.09L79.76 154.22L81.80 153.62L84.01 153.32L86.29 153.37L88.56 153.77L90.74 154.51L92.76 155.57L94.55 156.89L96.06 158.41L97.24 160.05L98.09 161.74L98.61 163.39L98.83 164.92L98.79 166.27L98.56 167.38L98.21 168.21L97.81 168.75L97.45 169.00L97.21 168.99L97.15 168.75L97.33 168.35L97.78 167.86L98.54 167.36L99.58 166.92L100.90 166.64L102.45 166.56L104.16 166.77L105.98 167.29L107.82 168.14L109.59 169.33L111.22 170.84L112.64 172.63L113.78 174.63L114.60 176.79L115.07 179.02L115.20 181.24L114.98 183.37L114.47 185.33L113.71 187.06L112.77 188.51L111.73 189.66L110.67 190.49L109.67 191.02L108.80 191.28L108.13 191.31L107.71 191.20L107.57 191.00Z" fill="none" stroke="#D2C38E" stroke-width="0.070" transform="rotate(2.40 79.00 191.00)"/><path d="M107.57 191.00L107.71 190.80L108.13 190.69L108.80 190.72L109.67 190.98L110.67 191.51L111.73 192.34L112.77 193.49L113.71 194.94L114.47 196.67L114.98 198.63L115.20 200.76L115.07 202.98L114.60 205.21L113.78 207.37L112.64 209.37L111.22 211.16L109.59 212.67L107.82 213.86L105.98 214.71L104.16 215.23L102.45 215.44L100.90 215.36L99.58 215.08L98.54 214.64L97.78 214.14L97.33 213.65L97.15 213.25L97.21 213.01L97.45 213.00L97.81 213.25L98.21 213.79L98.56 214.62L98.79 215.73L98.83 217.08L98.61 218.61L98.09 220.26L97.24 221.95L96.06 223.59L94.55 225.11L92.76 226.43L90.74 227.49L88.56 228.23L86.29 228.63L84.01 228.68L81.80 228.38L79.76 227.78L77.93 226.91L76.37 225.84L75.12 224.64L74.19 223.40L73.57 222.21L73.24 221.12L73.15 220.22L73.23 219.56L73.43 219.16L73.65 219.06L73.81 219.24L73.85 219.67L73.69 220.32L73.27 221.13L72.56 222.01L71.55 222.90L70.23 223.71L68.62 224.36L66.78 224.78L64.76 224.92L62.63 224.73L60.47 224.19L58.37 223.31L56.41 222.10L54.65 220.60L53.16 218.88L51.98 216.99L51.14 215.02L50.65 213.06L50.48 211.18L50.60 209.45L50.96 207.95L51.49 206.71L52.12 205.76L52.75 205.12L53.32 204.76L53.75 204.66L53.97 204.76L53.94 205.00L53.62 205.31L53.02 205.60L52.13 205.79L51.00 205.81L49.67 205.59L48.20 205.09L46.68 204.27L45.18 203.12L43.79 201.65L42.58 199.89L41.62 197.88L40.96 195.70L40.64 193.41L40.67 191.11L41.05 188.86L41.75 186.75L42.73 184.85L43.93 183.22L45.27 181.89L46.68 180.88L48.07 180.20L49.37 179.82L50.49 179.69L51.39 179.77L52.03 179.98L52.38 180.25L52.44 180.48L52.23 180.61L51.80 180.57L51.19 180.29L50.48 179.73L49.74 178.87L49.06 177.70L48.52 176.25L48.18 174.56L48.11 172.67L48.35 170.66L48.94 168.60L49.87 166.58L51.13 164.68L52.69 162.98L54.49 161.53L56.46 160.39L58.53 159.59L60.62 159.14L62.64 159.02L64.52 159.21L66.20 159.65L67.61 160.29L68.73 161.04L69.54 161.83L70.05 162.57L70.30 163.20L70.32 163.63L70.17 163.83L69.94 163.76L69.70 163.39L69.53 162.74L69.51 161.84L69.70 160.72L70.16 159.45L70.93 158.11L72.02 156.77L73.43 155.51L75.14 154.42L77.10 153.56L79.25 152.99L81.51 152.75L83.82 152.86L86.08 153.33L88.22 154.12L90.15 155.21L91.84 156.53L93.22 158.01L94.27 159.58L94.99 161.15L95.40 162.64L95.54 163.99L95.45 165.11L95.20 165.99L94.87 166.57L94.55 166.87L94.31 166.88L94.22 166.65L94.34 166.24L94.74 165.69L95.42 165.10L96.40 164.53L97.67 164.08L99.20 163.82L100.93 163.80L102.80 164.09L104.73 164.71L106.64 165.67L108.44 166.96L110.07 168.55L111.46 170.40L112.54 172.44L113.29 174.59L113.69 176.78L113.74 178.92L113.48 180.93L112.94 182.74L112.19 184.30L111.31 185.56L110.36 186.52L109.43 187.17L108.60 187.54L107.94 187.66L107.51 187.60L107.34 187.42L107.46 187.21L107.86 187.04L108.53 186.99L109.42 187.14L110.48 187.54L111.64 188.23L112.82 189.24L113.93 190.56L114.90 192.18L115.66 194.06L116.13 196.15L116.29 198.36L116.10 200.63L115.56 202.88L114.68 205.01L113.50 206.96L112.07 208.66L110.46 210.07L108.74 211.15L107.00 211.89L105.32 212.30L103.78 212.43L102.44 212.31L101.34 212.01L100.54 211.60L100.02 211.17L99.79 210.80L99.82 210.55L100.06 210.51L100.45 210.71L100.91 211.20L101.37 211.98L101.74 213.05L101.94 214.39L101.91 215.93L101.60 217.64L100.97 219.42L100.01 221.20L98.71 222.89L97.10 224.43L95.23 225.73L93.15 226.74L90.95 227.42L88.69 227.76L86.47 227.74L84.36 227.39L82.43 226.76L80.76 225.89L79.36 224.86L78.29 223.75L77.52 222.64L77.06 221.61L76.85 220.72L76.86 220.05L77.00 219.64L77.21 219.51L77.39 219.67L77.48 220.09L77.40 220.76L77.09 221.61L76.50 222.58L75.60 223.58L74.39 224.55L72.89 225.40L71.11 226.04L69.12 226.43L66.99 226.51L64.78 226.25L62.58 225.64L60.48 224.69L58.55 223.42L56.86 221.90L55.45 220.17L54.38 218.33L53.64 216.44L53.24 214.59L53.14 212.87L53.31 211.33L53.68 210.03L54.18 209.01L54.73 208.29L55.25 207.87L55.66 207.72L55.89 207.79L55.89 208.03L55.62 208.38L55.05 208.74L54.20 209.04L53.08 209.20L51.73 209.15L50.21 208.84L48.60 208.21L46.97 207.26L45.40 205.98L43.98 204.38L42.77 202.51L41.85 200.43L41.24 198.20L40.98 195.91L41.08 193.63L41.51 191.45L42.25 189.44L43.23 187.67L44.40 186.19L45.67 185.01L46.96 184.16L48.20 183.62L49.30 183.36L50.20 183.32L50.86 183.45L51.24 183.67L51.33 183.90L51.14 184.05L50.71 184.06L50.07 183.86L49.29 183.39L48.45 182.63L47.63 181.56L46.91 180.19L46.36 178.55L46.05 176.68L46.05 174.66L46.37 172.54L47.04 170.43L48.05 168.38L49.38 166.50L50.99 164.84L52.80 163.46L54.76 162.40L56.77 161.69L58.76 161.32L60.65 161.27L62.37 161.50L63.85 161.96L65.05 162.56L65.96 163.24L66.56 163.92L66.88 164.51L66.95 164.94L66.84 165.15L66.60 165.11L66.31 164.77L66.06 164.15L65.93 163.26L65.98 162.13L66.28 160.81L66.87 159.38L67.79 157.91L69.03 156.49L70.59 155.19L72.42 154.09L74.48 153.26L76.70 152.74L79.00 152.56L81.30 152.74L83.52 153.26L85.58 154.09L87.41 155.19L88.97 156.49L90.21 157.91L91.13 159.38L91.72 160.81L92.02 162.13L92.07 163.26L91.94 164.15L91.69 164.77L91.40 165.11L91.16 165.15L91.05 164.94L91.12 164.51L91.44 163.92L92.04 163.24L92.95 162.56L94.15 161.96L95.63 161.50L97.35 161.27L99.24 161.32L101.23 161.69L103.24 162.40L105.20 163.46L107.01 164.84L108.62 166.50L109.95 168.38L110.96 170.43L111.63 172.54L111.95 174.66L111.95 176.68L111.64 178.55L111.09 180.19L110.37 181.56L109.55 182.63L108.71 183.39L107.93 183.86L107.29 184.06L106.86 184.05L106.67 183.90L106.76 183.67L107.14 183.45L107.80 183.32L108.70 183.36L109.80 183.62L111.04 184.16L112.33 185.01L113.60 186.19L114.77 187.67L115.75 189.44L116.49 191.45L116.92 193.63L117.02 195.91L116.76 198.20L116.15 200.43L115.23 202.51L114.02 204.38L112.60 205.98L111.03 207.26L109.40 208.21L107.79 208.84L106.27 209.15L104.92 209.20L103.80 209.04L102.95 208.74L102.38 208.38L102.11 208.03L102.11 207.79L102.34 207.72L102.75 207.87L103.27 208.29L103.82 209.01L104.32 210.03L104.69 211.33L104.86 212.87L104.76 214.59L104.36 216.44L103.62 218.33L102.55 220.17L101.14 221.90L99.45 223.42L97.52 224.69L95.42 225.64L93.22 226.25L91.01 226.51L88.88 226.43L86.89 226.04L85.11 225.40L83.61 224.55L82.40 223.58L81.50 222.58L80.91 221.61L80.60 220.76L80.52 220.09L80.61 219.67L80.79 219.51L81.00 219.64L81.14 220.05L81.15 220.72L80.94 221.61L80.48 222.64L79.71 223.75L78.64 224.86L77.24 225.89L75.57 226.76L73.64 227.39L71.53 227.74L69.31 227.76L67.05 227.42L64.85 226.74L62.77 225.73L60.90 224.43L59.29 222.89L57.99 221.20L57.03 219.42L56.40 217.64L56.09 215.93L56.06 214.39L56.26 213.05L56.63 211.98L57.09 211.20L57.55 210.71L57.94 210.51L58.18 210.55L58.21 210.80L57.98 211.17L57.46 211.60L56.66 212.01L55.56 212.31L54.22 212.43L52.68 212.30L51.00 211.89L49.26 211.15L47.54 210.07L45.93 208.66L44.50 206.96L43.32 205.01L42.44 202.88L41.90 200.63L41.71 198.36L41.87 196.15L42.34 194.06L43.10 192.18L44.07 190.56L45.18 189.24L46.36 188.23L47.52 187.54L48.58 187.14L49.47 186.99L50.14 187.04L50.54 187.21L50.66 187.42L50.49 187.60L50.06 187.66L49.40 187.54L48.57 187.17L47.64 186.52L46.69 185.56L45.81 184.30L45.06 182.74L44.52 180.93L44.26 178.92L44.31 176.78L44.71 174.59L45.46 172.44L46.54 170.40L47.93 168.55L49.56 166.96L51.36 165.67L53.27 164.71L55.20 164.09L57.07 163.80L58.80 163.82L60.33 164.08L61.60 164.53L62.58 165.10L63.26 165.69L63.66 166.24L63.78 166.65L63.69 166.88L63.45 166.87L63.13 166.57L62.80 165.99L62.55 165.11L62.46 163.99L62.60 162.64L63.01 161.15L63.73 159.58L64.78 158.01L66.16 156.53L67.85 155.21L69.78 154.12L71.92 153.33L74.18 152.86L76.49 152.75L78.75 152.99L80.90 153.56L82.86 154.42L84.57 155.51L85.98 156.77L87.07 158.11L87.84 159.45L88.30 160.72L88.49 161.84L88.47 162.74L88.30 163.39L88.06 163.76L87.83 163.83L87.68 163.63L87.70 163.20L87.95 162.57L88.46 161.83L89.27 161.04L90.39 160.29L91.80 159.65L93.48 159.21L95.36 159.02L97.38 159.14L99.47 159.59L101.54 160.39L103.51 161.53L105.31 162.98L106.87 164.68L108.13 166.58L109.06 168.60L109.65 170.66L109.89 172.67L109.82 174.56L109.48 176.25L108.94 177.70L108.26 178.87L107.52 179.73L106.81 180.29L106.20 180.57L105.77 180.61L105.56 180.48L105.62 180.25L105.97 179.98L106.61 179.77L107.51 179.69L108.63 179.82L109.93 180.20L111.32 180.88L112.73 181.89L114.07 183.22L115.27 184.85L116.25 186.75L116.95 188.86L117.33 191.11L117.36 193.41L117.04 195.70L116.38 197.88L115.42 199.89L114.21 201.65L112.82 203.12L111.32 204.27L109.80 205.09L108.33 205.59L107.00 205.81L105.87 205.79L104.98 205.60L104.38 205.31L104.06 205.00L104.03 204.76L104.25 204.66L104.68 204.76L105.25 205.12L105.88 205.76L106.51 206.71L107.04 207.95L107.40 209.45L107.52 211.18L107.35 213.06L106.86 215.02L106.02 216.99L104.84 218.88L103.35 220.60L101.59 222.10L99.63 223.31L97.53 224.19L95.37 224.73L93.24 224.92L91.22 224.78L89.38 224.36L87.77 223.71L86.45 222.90L85.44 222.01L84.73 221.13L84.31 220.32L84.15 219.67L84.19 219.24L84.35 219.06L84.57 219.16L84.77 219.56L84.85 220.22L84.76 221.12L84.43 222.21L83.81 223.40L82.88 224.64L81.63 225.84L80.07 226.91L78.24 227.78L76.20 228.38L73.99 228.68L71.71 228.63L69.44 228.23L67.26 227.49L65.24 226.43L63.45 225.11L61.94 223.59L60.76 221.95L59.91 220.26L59.39 218.61L59.17 217.08L59.21 215.73L59.44 214.62L59.79 213.79L60.19 213.25L60.55 213.00L60.79 213.01L60.85 213.25L60.67 213.65L60.22 214.14L59.46 214.64L58.42 215.08L57.10 215.36L55.55 215.44L53.84 215.23L52.02 214.71L50.18 213.86L48.41 212.67L46.78 211.16L45.36 209.37L44.22 207.37L43.40 205.21L42.93 202.98L42.80 200.76L43.02 198.63L43.53 196.67L44.29 194.94L45.23 193.49L46.27 192.34L47.33 191.51L48.33 190.98L49.20 190.72L49.87 190.69L50.29 190.80L50.43 191.00L50.29 191.20L49.87 191.31L49.20 191.28L48.33 191.02L47.33 190.49L46.27 189.66L45.23 188.51L44.29 187.06L43.53 185.33L43.02 183.37L42.80 181.24L42.93 179.02L43.40 176.79L44.22 174.63L45.36 172.63L46.78 170.84L48.41 169.33L50.18 168.14L52.02 167.29L53.84 166.77L55.55 166.56L57.10 166.64L58.42 166.92L59.46 167.36L60.22 167.86L60.67 168.35L60.85 168.75L60.79 168.99L60.55 169.00L60.19 168.75L59.79 168.21L59.44 167.38L59.21 166.27L59.17 164.92L59.39 163.39L59.91 161.74L60.76 160.05L61.94 158.41L63.45 156.89L65.24 155.57L67.26 154.51L69.44 153.77L71.71 153.37L73.99 153.32L76.20 153.62L78.24 154.22L80.07 155.09L81.63 156.16L82.88 157.36L83.81 158.60L84.43 159.79L84.76 160.88L84.85 161.78L84.77 162.44L84.57 162.84L84.35 162.94L84.19 162.76L84.15 162.33L84.31 161.68L84.73 160.87L85.44 159.99L86.45 159.10L87.77 158.29L89.38 157.64L91.22 157.22L93.24 157.08L95.37 157.27L97.53 157.81L99.63 158.69L101.59 159.90L103.35 161.40L104.84 163.12L106.02 165.01L106.86 166.98L107.35 168.94L107.52 170.82L107.40 172.55L107.04 174.05L106.51 175.29L105.88 176.24L105.25 176.88L104.68 177.24L104.25 177.34L104.03 177.24L104.06 177.00L104.38 176.69L104.98 176.40L105.87 176.21L107.00 176.19L108.33 176.41L109.80 176.91L111.32 177.73L112.82 178.88L114.21 180.35L115.42 182.11L116.38 184.12L117.04 186.30L117.36 188.59L117.33 190.89L116.95 193.14L116.25 195.25L115.27 197.15L114.07 198.78L112.73 200.11L111.32 201.12L109.93 201.80L108.63 202.18L107.51 202.31L106.61 202.23L105.97 202.02L105.62 201.75L105.56 201.52L105.77 201.39L106.20 201.43L106.81 201.71L107.52 202.27L108.26 203.13L108.94 204.30L109.48 205.75L109.82 207.44L109.89 209.33L109.65 211.34L109.06 213.40L108.13 215.42L106.87 217.32L105.31 219.02L103.51 220.47L101.54 221.61L99.47 222.41L97.38 222.86L95.36 222.98L93.48 222.79L91.80 222.35L90.39 221.71L89.27 220.96L88.46 220.17L87.95 219.43L87.70 218.80L87.68 218.37L87.83 218.17L88.06 218.24L88.30 218.61L88.47 219.26L88.49 220.16L88.30 221.28L87.84 222.55L87.07 223.89L85.98 225.23L84.57 226.49L82.86 227.58L80.90 228.44L78.75 229.01L76.49 229.25L74.18 229.14L71.92 228.67L69.78 227.88L67.85 226.79L66.16 225.47L64.78 223.99L63.73 222.42L63.01 220.85L62.60 219.36L62.46 218.01L62.55 216.89L62.80 216.01L63.13 215.43L63.45 215.13L63.69 215.12L63.78 215.35L63.66 215.76L63.26 216.31L62.58 216.90L61.60 217.47L60.33 217.92L58.80 218.18L57.07 218.20L55.20 217.91L53.27 217.29L51.36 216.33L49.56 215.04L47.93 213.45L46.54 211.60L45.46 209.56L44.71 207.41L44.31 205.22L44.26 203.08L44.52 201.07L45.06 199.26L45.81 197.70L46.69 196.44L47.64 195.48L48.57 194.83L49.40 194.46L50.06 194.34L50.49 194.40L50.66 194.58L50.54 194.79L50.14 194.96L49.47 195.01L48.58 194.86L47.52 194.46L46.36 193.77L45.18 192.76L44.07 191.44L43.10 189.82L42.34 187.94L41.87 185.85L41.71 183.64L41.90 181.37L42.44 179.12L43.32 176.99L44.50 175.04L45.93 173.34L47.54 171.93L49.26 170.85L51.00 170.11L52.68 169.70L54.22 169.57L55.56 169.69L56.66 169.99L57.46 170.40L57.98 170.83L58.21 171.20L58.18 171.45L57.94 171.49L57.55 171.29L57.09 170.80L56.63 170.02L56.26 168.95L56.06 167.61L56.09 166.07L56.40 164.36L57.03 162.58L57.99 160.80L59.29 159.11L60.90 157.57L62.77 156.27L64.85 155.26L67.05 154.58L69.31 154.24L71.53 154.26L73.64 154.61L75.57 155.24L77.24 156.11L78.64 157.14L79.71 158.25L80.48 159.36L80.94 160.39L81.15 161.28L81.14 161.95L81.00 162.36L80.79 162.49L80.61 162.33L80.52 161.91L80.60 161.24L80.91 160.39L81.50 159.42L82.40 158.42L83.61 157.45L85.11 156.60L86.89 155.96L88.88 155.57L91.01 155.49L93.22 155.75L95.42 156.36L97.52 157.31L99.45 158.58L101.14 160.10L102.55 161.83L103.62 163.67L104.36 165.56L104.76 167.41L104.86 169.13L104.69 170.67L104.32 171.97L103.82 172.99L103.27 173.71L102.75 174.13L102.34 174.28L102.11 174.21L102.11 173.97L102.38 173.62L102.95 173.26L103.80 172.96L104.92 172.80L106.27 172.85L107.79 173.16L109.40 173.79L111.03 174.74L112.60 176.02L114.02 177.62L115.23 179.49L116.15 181.57L116.76 183.80L117.02 186.09L116.92 188.37L116.49 190.55L115.75 192.56L114.77 194.33L113.60 195.81L112.33 196.99L111.04 197.84L109.80 198.38L108.70 198.64L107.80 198.68L107.14 198.55L106.76 198.33L106.67 198.10L106.86 197.95L107.29 197.94L107.93 198.14L108.71 198.61L109.55 199.37L110.37 200.44L111.09 201.81L111.64 203.45L111.95 205.32L111.95 207.34L111.63 209.46L110.96 211.57L109.95 213.62L108.62 215.50L107.01 217.16L105.20 218.54L103.24 219.60L101.23 220.31L99.24 220.68L97.35 220.73L95.63 220.50L94.15 220.04L92.95 219.44L92.04 218.76L91.44 218.08L91.12 217.49L91.05 217.06L91.16 216.85L91.40 216.89L91.69 217.23L91.94 217.85L92.07 218.74L92.02 219.87L91.72 221.19L91.13 222.62L90.21 224.09L88.97 225.51L87.41 226.81L85.58 227.91L83.52 228.74L81.30 229.26L79.00 229.44L76.70 229.26L74.48 228.74L72.42 227.91L70.59 226.81L69.03 225.51L67.79 224.09L66.87 222.62L66.28 221.19L65.98 219.87L65.93 218.74L66.06 217.85L66.31 217.23L66.60 216.89L66.84 216.85L66.95 217.06L66.88 217.49L66.56 218.08L65.96 218.76L65.05 219.44L63.85 220.04L62.37 220.50L60.65 220.73L58.76 220.68L56.77 220.31L54.76 219.60L52.80 218.54L50.99 217.16L49.38 215.50L48.05 213.62L47.04 211.57L46.37 209.46L46.05 207.34L46.05 205.32L46.36 203.45L46.91 201.81L47.63 200.44L48.45 199.37L49.29 198.61L50.07 198.14L50.71 197.94L51.14 197.95L51.33 198.10L51.24 198.33L50.86 198.55L50.20 198.68L49.30 198.64L48.20 198.38L46.96 197.84L45.67 196.99L44.40 195.81L43.23 194.33L42.25 192.56L41.51 190.55L41.08 188.37L40.98 186.09L41.24 183.80L41.85 181.57L42.77 179.49L43.98 177.62L45.40 176.02L46.97 174.74L48.60 173.79L50.21 173.16L51.73 172.85L53.08 172.80L54.20 172.96L55.05 173.26L55.62 173.62L55.89 173.97L55.89 174.21L55.66 174.28L55.25 174.13L54.73 173.71L54.18 172.99L53.68 171.97L53.31 170.67L53.14 169.13L53.24 167.41L53.64 165.56L54.38 163.67L55.45 161.83L56.86 160.10L58.55 158.58L60.48 157.31L62.58 156.36L64.78 155.75L66.99 155.49L69.12 155.57L71.11 155.96L72.89 156.60L74.39 157.45L75.60 158.42L76.50 159.42L77.09 160.39L77.40 161.24L77.48 161.91L77.39 162.33L77.21 162.49L77.00 162.36L76.86 161.95L76.85 161.28L77.06 160.39L77.52 159.36L78.29 158.25L79.36 157.14L80.76 156.11L82.43 155.24L84.36 154.61L86.47 154.26L88.69 154.24L90.95 154.58L93.15 155.26L95.23 156.27L97.10 157.57L98.71 159.11L100.01 160.80L100.97 162.58L101.60 164.36L101.91 166.07L101.94 167.61L101.74 168.95L101.37 170.02L100.91 170.80L100.45 171.29L100.06 171.49L99.82 171.45L99.79 171.20L100.02 170.83L100.54 170.40L101.34 169.99L102.44 169.69L103.78 169.57L105.32 169.70L107.00 170.11L108.74 170.85L110.46 171.93L112.07 173.34L113.50 175.04L114.68 176.99L115.56 179.12L116.10 181.37L116.29 183.64L116.13 185.85L115.66 187.94L114.90 189.82L113.93 191.44L112.82 192.76L111.64 193.77L110.48 194.46L109.42 194.86L108.53 195.01L107.86 194.96L107.46 194.79L107.34 194.58L107.51 194.40L107.94 194.34L108.60 194.46L109.43 194.83L110.36 195.48L111.31 196.44L112.19 197.70L112.94 199.26L113.48 201.07L113.74 203.08L113.69 205.22L113.29 207.41L112.54 209.56L111.46 211.60L110.07 213.45L108.44 215.04L106.64 216.33L104.73 217.29L102.80 217.91L100.93 218.20L99.20 218.18L97.67 217.92L96.40 217.47L95.42 216.90L94.74 216.31L94.34 215.76L94.22 215.35L94.31 215.12L94.55 215.13L94.87 215.43L95.20 216.01L95.45 216.89L95.54 218.01L95.40 219.36L94.99 220.85L94.27 222.42L93.22 223.99L91.84 225.47L90.15 226.79L88.22 227.88L86.08 228.67L83.82 229.14L81.51 229.25L79.25 229.01L77.10 228.44L75.14 227.58L73.43 226.49L72.02 225.23L70.93 223.89L70.16 222.55L69.70 221.28L69.51 220.16L69.53 219.26L69.70 218.61L69.94 218.24L70.17 218.17L70.32 218.37L70.30 218.80L70.05 219.43L69.54 220.17L68.73 220.96L67.61 221.71L66.20 222.35L64.52 222.79L62.64 222.98L60.62 222.86L58.53 222.41L56.46 221.61L54.49 220.47L52.69 219.02L51.13 217.32L49.87 215.42L48.94 213.40L48.35 211.34L48.11 209.33L48.18 207.44L48.52 205.75L49.06 204.30L49.74 203.13L50.48 202.27L51.19 201.71L51.80 201.43L52.23 201.39L52.44 201.52L52.38 201.75L52.03 202.02L51.39 202.23L50.49 202.31L49.37 202.18L48.07 201.80L46.68 201.12L45.27 200.11L43.93 198.78L42.73 197.15L41.75 195.25L41.05 193.14L40.67 190.89L40.64 188.59L40.96 186.30L41.62 184.12L42.58 182.11L43.79 180.35L45.18 178.88L46.68 177.73L48.20 176.91L49.67 176.41L51.00 176.19L52.13 176.21L53.02 176.40L53.62 176.69L53.94 177.00L53.97 177.24L53.75 177.34L53.32 177.24L52.75 176.88L52.12 176.24L51.49 175.29L50.96 174.05L50.60 172.55L50.48 170.82L50.65 168.94L51.14 166.98L51.98 165.01L53.16 163.12L54.65 161.40L56.41 159.90L58.37 158.69L60.47 157.81L62.63 157.27L64.76 157.08L66.78 157.22L68.62 157.64L70.23 158.29L71.55 159.10L72.56 159.99L73.27 160.87L73.69 161.68L73.85 162.33L73.81 162.76L73.65 162.94L73.43 162.84L73.23 162.44L73.15 161.78L73.24 160.88L73.57 159.79L74.19 158.60L75.12 157.36L76.37 156.16L77.93 155.09L79.76 154.22L81.80 153.62L84.01 153.32L86.29 153.37L88.56 153.77L90.74 154.51L92.76 155.57L94.55 156.89L96.06 158.41L97.24 160.05L98.09 161.74L98.61 163.39L98.83 164.92L98.79 166.27L98.56 167.38L98.21 168.21L97.81 168.75L97.45 169.00L97.21 168.99L97.15 168.75L97.33 168.35L97.78 167.86L98.54 167.36L99.58 166.92L100.90 166.64L102.45 166.56L104.16 166.77L105.98 167.29L107.82 168.14L109.59 169.33L111.22 170.84L112.64 172.63L113.78 174.63L114.60 176.79L115.07 179.02L115.20 181.24L114.98 183.37L114.47 185.33L113.71 187.06L112.77 188.51L111.73 189.66L110.67 190.49L109.67 191.02L108.80 191.28L108.13 191.31L107.71 191.20L107.57 191.00Z" fill="none" stroke="#D2C38E" stroke-width="0.070" transform="rotate(4.80 79.00 191.00)"/><path d="M94.66 191.00L94.74 190.89L94.98 190.83L95.34 190.85L95.82 190.99L96.37 191.28L96.95 191.74L97.52 192.37L98.04 193.16L98.45 194.11L98.73 195.19L98.85 196.35L98.78 197.57L98.52 198.79L98.07 199.98L97.45 201.08L96.67 202.06L95.78 202.88L94.80 203.54L93.80 204.00L92.80 204.29L91.86 204.40L91.01 204.36L90.29 204.20L89.71 203.96L89.30 203.69L89.05 203.42L88.95 203.20L88.99 203.07L89.12 203.06L89.32 203.20L89.53 203.50L89.73 203.95L89.85 204.56L89.87 205.30L89.75 206.14L89.47 207.05L89.00 207.97L88.35 208.87L87.53 209.71L86.55 210.43L85.44 211.01L84.24 211.42L83.00 211.64L81.75 211.66L80.54 211.50L79.41 211.17L78.41 210.69L77.56 210.10L76.87 209.45L76.36 208.77L76.02 208.11L75.84 207.52L75.79 207.02L75.84 206.66L75.94 206.44L76.06 206.39L76.16 206.49L76.18 206.72L76.09 207.08L75.86 207.52L75.47 208.01L74.91 208.49L74.19 208.94L73.31 209.29L72.30 209.52L71.19 209.60L70.02 209.50L68.84 209.20L67.69 208.72L66.61 208.05L65.65 207.23L64.83 206.29L64.18 205.25L63.72 204.17L63.45 203.10L63.36 202.07L63.43 201.12L63.63 200.29L63.92 199.61L64.26 199.09L64.61 198.74L64.92 198.55L65.15 198.49L65.27 198.55L65.26 198.68L65.08 198.85L64.75 199.01L64.27 199.11L63.65 199.12L62.92 199.00L62.11 198.73L61.28 198.28L60.46 197.64L59.69 196.84L59.03 195.87L58.50 194.77L58.14 193.58L57.96 192.32L57.98 191.06L58.19 189.83L58.57 188.67L59.11 187.63L59.77 186.73L60.51 186.00L61.28 185.45L62.04 185.08L62.75 184.87L63.37 184.80L63.86 184.84L64.21 184.96L64.40 185.10L64.44 185.23L64.32 185.30L64.08 185.28L63.75 185.12L63.36 184.82L62.96 184.35L62.58 183.71L62.28 182.91L62.10 181.98L62.06 180.95L62.19 179.84L62.51 178.72L63.02 177.61L63.72 176.57L64.57 175.63L65.56 174.84L66.64 174.22L67.78 173.78L68.92 173.53L70.03 173.46L71.06 173.56L71.98 173.81L72.75 174.16L73.37 174.57L73.81 175.00L74.09 175.41L74.23 175.75L74.24 175.99L74.16 176.10L74.03 176.06L73.90 175.86L73.81 175.50L73.79 175.01L73.90 174.40L74.15 173.70L74.58 172.96L75.17 172.23L75.95 171.54L76.88 170.94L77.96 170.47L79.13 170.16L80.38 170.02L81.64 170.09L82.88 170.34L84.05 170.78L85.12 171.37L86.04 172.10L86.80 172.91L87.37 173.77L87.77 174.63L88.00 175.45L88.07 176.19L88.02 176.80L87.88 177.28L87.71 177.60L87.53 177.76L87.39 177.77L87.34 177.65L87.41 177.42L87.63 177.12L88.00 176.80L88.54 176.49L89.24 176.24L90.08 176.09L91.03 176.09L92.05 176.24L93.11 176.58L94.16 177.11L95.15 177.82L96.04 178.69L96.80 179.70L97.39 180.82L97.80 182.00L98.02 183.20L98.05 184.37L97.91 185.48L97.61 186.47L97.20 187.32L96.72 188.02L96.20 188.54L95.69 188.90L95.23 189.10L94.87 189.17L94.63 189.13L94.54 189.04L94.61 188.92L94.83 188.83L95.19 188.80L95.68 188.88L96.27 189.10L96.90 189.48L97.55 190.03L98.16 190.76L98.69 191.65L99.10 192.68L99.36 193.82L99.45 195.04L99.35 196.28L99.05 197.51L98.57 198.68L97.92 199.75L97.13 200.69L96.25 201.46L95.31 202.05L94.36 202.45L93.44 202.68L92.59 202.75L91.85 202.68L91.25 202.52L90.81 202.30L90.53 202.06L90.40 201.86L90.42 201.72L90.55 201.70L90.76 201.81L91.02 202.08L91.27 202.51L91.47 203.09L91.58 203.82L91.57 204.67L91.40 205.61L91.05 206.58L90.52 207.56L89.81 208.49L88.92 209.33L87.90 210.04L86.76 210.60L85.55 210.97L84.31 211.16L83.10 211.15L81.94 210.96L80.88 210.61L79.96 210.13L79.20 209.57L78.61 208.96L78.19 208.35L77.93 207.78L77.82 207.30L77.83 206.93L77.90 206.71L78.02 206.63L78.12 206.72L78.17 206.95L78.12 207.32L77.95 207.79L77.63 208.32L77.14 208.87L76.47 209.40L75.65 209.86L74.67 210.22L73.58 210.43L72.41 210.47L71.20 210.33L70.00 210.00L68.84 209.47L67.79 208.78L66.86 207.94L66.09 207.00L65.50 205.99L65.09 204.95L64.87 203.94L64.82 202.99L64.91 202.15L65.11 201.44L65.39 200.88L65.69 200.48L65.97 200.25L66.20 200.17L66.33 200.21L66.33 200.34L66.18 200.53L65.87 200.73L65.40 200.89L64.78 200.98L64.05 200.95L63.21 200.78L62.33 200.44L61.43 199.92L60.58 199.21L59.80 198.34L59.13 197.31L58.63 196.17L58.29 194.95L58.15 193.69L58.21 192.44L58.44 191.25L58.85 190.15L59.39 189.18L60.03 188.36L60.72 187.72L61.43 187.25L62.11 186.95L62.71 186.81L63.21 186.79L63.57 186.86L63.78 186.98L63.83 187.10L63.72 187.19L63.48 187.19L63.13 187.08L62.71 186.83L62.25 186.41L61.80 185.82L61.40 185.07L61.10 184.17L60.93 183.15L60.93 182.04L61.10 180.88L61.47 179.72L62.03 178.60L62.76 177.56L63.64 176.65L64.63 175.90L65.71 175.32L66.81 174.93L67.90 174.72L68.94 174.70L69.88 174.82L70.69 175.07L71.35 175.40L71.85 175.78L72.18 176.15L72.35 176.47L72.39 176.71L72.33 176.83L72.20 176.80L72.04 176.62L71.91 176.28L71.83 175.79L71.86 175.17L72.02 174.44L72.35 173.66L72.85 172.86L73.53 172.08L74.39 171.36L75.39 170.76L76.52 170.30L77.74 170.02L79.00 169.92L80.26 170.02L81.48 170.30L82.61 170.76L83.61 171.36L84.47 172.08L85.15 172.86L85.65 173.66L85.98 174.44L86.14 175.17L86.17 175.79L86.09 176.28L85.96 176.62L85.80 176.80L85.67 176.83L85.61 176.71L85.65 176.47L85.82 176.15L86.15 175.78L86.65 175.40L87.31 175.07L88.12 174.82L89.06 174.70L90.10 174.72L91.19 174.93L92.29 175.32L93.37 175.90L94.36 176.65L95.24 177.56L95.97 178.60L96.53 179.72L96.90 180.88L97.07 182.04L97.07 183.15L96.90 184.17L96.60 185.07L96.20 185.82L95.75 186.41L95.29 186.83L94.87 187.08L94.52 187.19L94.28 187.19L94.17 187.10L94.22 186.98L94.43 186.86L94.79 186.79L95.29 186.81L95.89 186.95L96.57 187.25L97.28 187.72L97.97 188.36L98.61 189.18L99.15 190.15L99.56 191.25L99.79 192.44L99.85 193.69L99.71 194.95L99.37 196.17L98.87 197.31L98.20 198.34L97.42 199.21L96.57 199.92L95.67 200.44L94.79 200.78L93.95 200.95L93.22 200.98L92.60 200.89L92.13 200.73L91.82 200.53L91.67 200.34L91.67 200.21L91.80 200.17L92.03 200.25L92.31 200.48L92.61 200.88L92.89 201.44L93.09 202.15L93.18 202.99L93.13 203.94L92.91 204.95L92.50 205.99L91.91 207.00L91.14 207.94L90.21 208.78L89.16 209.47L88.00 210.00L86.80 210.33L85.59 210.47L84.42 210.43L83.33 210.22L82.35 209.86L81.53 209.40L80.86 208.87L80.37 208.32L80.05 207.79L79.88 207.32L79.83 206.95L79.88 206.72L79.98 206.63L80.10 206.71L80.17 206.93L80.18 207.30L80.07 207.78L79.81 208.35L79.39 208.96L78.80 209.57L78.04 210.13L77.12 210.61L76.06 210.96L74.90 211.15L73.69 211.16L72.45 210.97L71.24 210.60L70.10 210.04L69.08 209.33L68.19 208.49L67.48 207.56L66.95 206.58L66.60 205.61L66.43 204.67L66.42 203.82L66.53 203.09L66.73 202.51L66.98 202.08L67.24 201.81L67.45 201.70L67.58 201.72L67.60 201.86L67.47 202.06L67.19 202.30L66.75 202.52L66.15 202.68L65.41 202.75L64.56 202.68L63.64 202.45L62.69 202.05L61.75 201.46L60.87 200.69L60.08 199.75L59.43 198.68L58.95 197.51L58.65 196.28L58.55 195.04L58.64 193.82L58.90 192.68L59.31 191.65L59.84 190.76L60.45 190.03L61.10 189.48L61.73 189.10L62.32 188.88L62.81 188.80L63.17 188.83L63.39 188.92L63.46 189.04L63.37 189.13L63.13 189.17L62.77 189.10L62.31 188.90L61.80 188.54L61.28 188.02L60.80 187.32L60.39 186.47L60.09 185.48L59.95 184.37L59.98 183.20L60.20 182.00L60.61 180.82L61.20 179.70L61.96 178.69L62.85 177.82L63.84 177.11L64.89 176.58L65.95 176.24L66.97 176.09L67.92 176.09L68.76 176.24L69.46 176.49L70.00 176.80L70.37 177.12L70.59 177.42L70.66 177.65L70.61 177.77L70.47 177.76L70.29 177.60L70.12 177.28L69.98 176.80L69.93 176.19L70.00 175.45L70.23 174.63L70.63 173.77L71.20 172.91L71.96 172.10L72.88 171.37L73.95 170.78L75.12 170.34L76.36 170.09L77.62 170.02L78.87 170.16L80.04 170.47L81.12 170.94L82.05 171.54L82.83 172.23L83.42 172.96L83.85 173.70L84.10 174.40L84.21 175.01L84.19 175.50L84.10 175.86L83.97 176.06L83.84 176.10L83.76 175.99L83.77 175.75L83.91 175.41L84.19 175.00L84.63 174.57L85.25 174.16L86.02 173.81L86.94 173.56L87.97 173.46L89.08 173.53L90.22 173.78L91.36 174.22L92.44 174.84L93.43 175.63L94.28 176.57L94.98 177.61L95.49 178.72L95.81 179.84L95.94 180.95L95.90 181.98L95.72 182.91L95.42 183.71L95.04 184.35L94.64 184.82L94.25 185.12L93.92 185.28L93.68 185.30L93.56 185.23L93.60 185.10L93.79 184.96L94.14 184.84L94.63 184.80L95.25 184.87L95.96 185.08L96.72 185.45L97.49 186.00L98.23 186.73L98.89 187.63L99.43 188.67L99.81 189.83L100.02 191.06L100.04 192.32L99.86 193.58L99.50 194.77L98.97 195.87L98.31 196.84L97.54 197.64L96.72 198.28L95.89 198.73L95.08 199.00L94.35 199.12L93.73 199.11L93.25 199.01L92.92 198.85L92.74 198.68L92.73 198.55L92.85 198.49L93.08 198.55L93.39 198.74L93.74 199.09L94.08 199.61L94.37 200.29L94.57 201.12L94.64 202.07L94.55 203.10L94.28 204.17L93.82 205.25L93.17 206.29L92.35 207.23L91.39 208.05L90.31 208.72L89.16 209.20L87.98 209.50L86.81 209.60L85.70 209.52L84.69 209.29L83.81 208.94L83.09 208.49L82.53 208.01L82.14 207.52L81.91 207.08L81.82 206.72L81.84 206.49L81.94 206.39L82.06 206.44L82.16 206.66L82.21 207.02L82.16 207.52L81.98 208.11L81.64 208.77L81.13 209.45L80.44 210.10L79.59 210.69L78.59 211.17L77.46 211.50L76.25 211.66L75.00 211.64L73.76 211.42L72.56 211.01L71.45 210.43L70.47 209.71L69.65 208.87L69.00 207.97L68.53 207.05L68.25 206.14L68.13 205.30L68.15 204.56L68.27 203.95L68.47 203.50L68.68 203.20L68.88 203.06L69.01 203.07L69.05 203.20L68.95 203.42L68.70 203.69L68.29 203.96L67.71 204.20L66.99 204.36L66.14 204.40L65.20 204.29L64.20 204.00L63.20 203.54L62.22 202.88L61.33 202.06L60.55 201.08L59.93 199.98L59.48 198.79L59.22 197.57L59.15 196.35L59.27 195.19L59.55 194.11L59.96 193.16L60.48 192.37L61.05 191.74L61.63 191.28L62.18 190.99L62.66 190.85L63.02 190.83L63.26 190.89L63.34 191.00L63.26 191.11L63.02 191.17L62.66 191.15L62.18 191.01L61.63 190.72L61.05 190.26L60.48 189.63L59.96 188.84L59.55 187.89L59.27 186.81L59.15 185.65L59.22 184.43L59.48 183.21L59.93 182.02L60.55 180.92L61.33 179.94L62.22 179.12L63.20 178.46L64.20 178.00L65.20 177.71L66.14 177.60L66.99 177.64L67.71 177.80L68.29 178.04L68.70 178.31L68.95 178.58L69.05 178.80L69.01 178.93L68.88 178.94L68.68 178.80L68.47 178.50L68.27 178.05L68.15 177.44L68.13 176.70L68.25 175.86L68.53 174.95L69.00 174.03L69.65 173.13L70.47 172.29L71.45 171.57L72.56 170.99L73.76 170.58L75.00 170.36L76.25 170.34L77.46 170.50L78.59 170.83L79.59 171.31L80.44 171.90L81.13 172.55L81.64 173.23L81.98 173.89L82.16 174.48L82.21 174.98L82.16 175.34L82.06 175.56L81.94 175.61L81.84 175.51L81.82 175.28L81.91 174.92L82.14 174.48L82.53 173.99L83.09 173.51L83.81 173.06L84.69 172.71L85.70 172.48L86.81 172.40L87.98 172.50L89.16 172.80L90.31 173.28L91.39 173.95L92.35 174.77L93.17 175.71L93.82 176.75L94.28 177.83L94.55 178.90L94.64 179.93L94.57 180.88L94.37 181.71L94.08 182.39L93.74 182.91L93.39 183.26L93.08 183.45L92.85 183.51L92.73 183.45L92.74 183.32L92.92 183.15L93.25 182.99L93.73 182.89L94.35 182.88L95.08 183.00L95.89 183.27L96.72 183.72L97.54 184.36L98.31 185.16L98.97 186.13L99.50 187.23L99.86 188.42L100.04 189.68L100.02 190.94L99.81 192.17L99.43 193.33L98.89 194.37L98.23 195.27L97.49 196.00L96.72 196.55L95.96 196.92L95.25 197.13L94.63 197.20L94.14 197.16L93.79 197.04L93.60 196.90L93.56 196.77L93.68 196.70L93.92 196.72L94.25 196.88L94.64 197.18L95.04 197.65L95.42 198.29L95.72 199.09L95.90 200.02L95.94 201.05L95.81 202.16L95.49 203.28L94.98 204.39L94.28 205.43L93.43 206.37L92.44 207.16L91.36 207.78L90.22 208.22L89.08 208.47L87.97 208.54L86.94 208.44L86.02 208.19L85.25 207.84L84.63 207.43L84.19 207.00L83.91 206.59L83.77 206.25L83.76 206.01L83.84 205.90L83.97 205.94L84.10 206.14L84.19 206.50L84.21 206.99L84.10 207.60L83.85 208.30L83.42 209.04L82.83 209.77L82.05 210.46L81.12 211.06L80.04 211.53L78.87 211.84L77.62 211.98L76.36 211.91L75.12 211.66L73.95 211.22L72.88 210.63L71.96 209.90L71.20 209.09L70.63 208.23L70.23 207.37L70.00 206.55L69.93 205.81L69.98 205.20L70.12 204.72L70.29 204.40L70.47 204.24L70.61 204.23L70.66 204.35L70.59 204.58L70.37 204.88L70.00 205.20L69.46 205.51L68.76 205.76L67.92 205.91L66.97 205.91L65.95 205.76L64.89 205.42L63.84 204.89L62.85 204.18L61.96 203.31L61.20 202.30L60.61 201.18L60.20 200.00L59.98 198.80L59.95 197.63L60.09 196.52L60.39 195.53L60.80 194.68L61.28 193.98L61.80 193.46L62.31 193.10L62.77 192.90L63.13 192.83L63.37 192.87L63.46 192.96L63.39 193.08L63.17 193.17L62.81 193.20L62.32 193.12L61.73 192.90L61.10 192.52L60.45 191.97L59.84 191.24L59.31 190.35L58.90 189.32L58.64 188.18L58.55 186.96L58.65 185.72L58.95 184.49L59.43 183.32L60.08 182.25L60.87 181.31L61.75 180.54L62.69 179.95L63.64 179.55L64.56 179.32L65.41 179.25L66.15 179.32L66.75 179.48L67.19 179.70L67.47 179.94L67.60 180.14L67.58 180.28L67.45 180.30L67.24 180.19L66.98 179.92L66.73 179.49L66.53 178.91L66.42 178.18L66.43 177.33L66.60 176.39L66.95 175.42L67.48 174.44L68.19 173.51L69.08 172.67L70.10 171.96L71.24 171.40L72.45 171.03L73.69 170.84L74.90 170.85L76.06 171.04L77.12 171.39L78.04 171.87L78.80 172.43L79.39 173.04L79.81 173.65L80.07 174.22L80.18 174.70L80.17 175.07L80.10 175.29L79.98 175.37L79.88 175.28L79.83 175.05L79.88 174.68L80.05 174.21L80.37 173.68L80.86 173.13L81.53 172.60L82.35 172.14L83.33 171.78L84.42 171.57L85.59 171.53L86.80 171.67L88.00 172.00L89.16 172.53L90.21 173.22L91.14 174.06L91.91 175.00L92.50 176.01L92.91 177.05L93.13 178.06L93.18 179.01L93.09 179.85L92.89 180.56L92.61 181.12L92.31 181.52L92.03 181.75L91.80 181.83L91.67 181.79L91.67 181.66L91.82 181.47L92.13 181.27L92.60 181.11L93.22 181.02L93.95 181.05L94.79 181.22L95.67 181.56L96.57 182.08L97.42 182.79L98.20 183.66L98.87 184.69L99.37 185.83L99.71 187.05L99.85 188.31L99.79 189.56L99.56 190.75L99.15 191.85L98.61 192.82L97.97 193.64L97.28 194.28L96.57 194.75L95.89 195.05L95.29 195.19L94.79 195.21L94.43 195.14L94.22 195.02L94.17 194.90L94.28 194.81L94.52 194.81L94.87 194.92L95.29 195.17L95.75 195.59L96.20 196.18L96.60 196.93L96.90 197.83L97.07 198.85L97.07 199.96L96.90 201.12L96.53 202.28L95.97 203.40L95.24 204.44L94.36 205.35L93.37 206.10L92.29 206.68L91.19 207.07L90.10 207.28L89.06 207.30L88.12 207.18L87.31 206.93L86.65 206.60L86.15 206.22L85.82 205.85L85.65 205.53L85.61 205.29L85.67 205.17L85.80 205.20L85.96 205.38L86.09 205.72L86.17 206.21L86.14 206.83L85.98 207.56L85.65 208.34L85.15 209.14L84.47 209.92L83.61 210.64L82.61 211.24L81.48 211.70L80.26 211.98L79.00 212.08L77.74 211.98L76.52 211.70L75.39 211.24L74.39 210.64L73.53 209.92L72.85 209.14L72.35 208.34L72.02 207.56L71.86 206.83L71.83 206.21L71.91 205.72L72.04 205.38L72.20 205.20L72.33 205.17L72.39 205.29L72.35 205.53L72.18 205.85L71.85 206.22L71.35 206.60L70.69 206.93L69.88 207.18L68.94 207.30L67.90 207.28L66.81 207.07L65.71 206.68L64.63 206.10L63.64 205.35L62.76 204.44L62.03 203.40L61.47 202.28L61.10 201.12L60.93 199.96L60.93 198.85L61.10 197.83L61.40 196.93L61.80 196.18L62.25 195.59L62.71 195.17L63.13 194.92L63.48 194.81L63.72 194.81L63.83 194.90L63.78 195.02L63.57 195.14L63.21 195.21L62.71 195.19L62.11 195.05L61.43 194.75L60.72 194.28L60.03 193.64L59.39 192.82L58.85 191.85L58.44 190.75L58.21 189.56L58.15 188.31L58.29 187.05L58.63 185.83L59.13 184.69L59.80 183.66L60.58 182.79L61.43 182.08L62.33 181.56L63.21 181.22L64.05 181.05L64.78 181.02L65.40 181.11L65.87 181.27L66.18 181.47L66.33 181.66L66.33 181.79L66.20 181.83L65.97 181.75L65.69 181.52L65.39 181.12L65.11 180.56L64.91 179.85L64.82 179.01L64.87 178.06L65.09 177.05L65.50 176.01L66.09 175.00L66.86 174.06L67.79 173.22L68.84 172.53L70.00 172.00L71.20 171.67L72.41 171.53L73.58 171.57L74.67 171.78L75.65 172.14L76.47 172.60L77.14 173.13L77.63 173.68L77.95 174.21L78.12 174.68L78.17 175.05L78.12 175.28L78.02 175.37L77.90 175.29L77.83 175.07L77.82 174.70L77.93 174.22L78.19 173.65L78.61 173.04L79.20 172.43L79.96 171.87L80.88 171.39L81.94 171.04L83.10 170.85L84.31 170.84L85.55 171.03L86.76 171.40L87.90 171.96L88.92 172.67L89.81 173.51L90.52 174.44L91.05 175.42L91.40 176.39L91.57 177.33L91.58 178.18L91.47 178.91L91.27 179.49L91.02 179.92L90.76 180.19L90.55 180.30L90.42 180.28L90.40 180.14L90.53 179.94L90.81 179.70L91.25 179.48L91.85 179.32L92.59 179.25L93.44 179.32L94.36 179.55L95.31 179.95L96.25 180.54L97.13 181.31L97.92 182.25L98.57 183.32L99.05 184.49L99.35 185.72L99.45 186.96L99.36 188.18L99.10 189.32L98.69 190.35L98.16 191.24L97.55 191.97L96.90 192.52L96.27 192.90L95.68 193.12L95.19 193.20L94.83 193.17L94.61 193.08L94.54 192.96L94.63 192.87L94.87 192.83L95.23 192.90L95.69 193.10L96.20 193.46L96.72 193.98L97.20 194.68L97.61 195.53L97.91 196.52L98.05 197.63L98.02 198.80L97.80 200.00L97.39 201.18L96.80 202.30L96.04 203.31L95.15 204.18L94.16 204.89L93.11 205.42L92.05 205.76L91.03 205.91L90.08 205.91L89.24 205.76L88.54 205.51L88.00 205.20L87.63 204.88L87.41 204.58L87.34 204.35L87.39 204.23L87.53 204.24L87.71 204.40L87.88 204.72L88.02 205.20L88.07 205.81L88.00 206.55L87.77 207.37L87.37 208.23L86.80 209.09L86.04 209.90L85.12 210.63L84.05 211.22L82.88 211.66L81.64 211.91L80.38 211.98L79.13 211.84L77.96 211.53L76.88 211.06L75.95 210.46L75.17 209.77L74.58 209.04L74.15 208.30L73.90 207.60L73.79 206.99L73.81 206.50L73.90 206.14L74.03 205.94L74.16 205.90L74.24 206.01L74.23 206.25L74.09 206.59L73.81 207.00L73.37 207.43L72.75 207.84L71.98 208.19L71.06 208.44L70.03 208.54L68.92 208.47L67.78 208.22L66.64 207.78L65.56 207.16L64.57 206.37L63.72 205.43L63.02 204.39L62.51 203.28L62.19 202.16L62.06 201.05L62.10 200.02L62.28 199.09L62.58 198.29L62.96 197.65L63.36 197.18L63.75 196.88L64.08 196.72L64.32 196.70L64.44 196.77L64.40 196.90L64.21 197.04L63.86 197.16L63.37 197.20L62.75 197.13L62.04 196.92L61.28 196.55L60.51 196.00L59.77 195.27L59.11 194.37L58.57 193.33L58.19 192.17L57.98 190.94L57.96 189.68L58.14 188.42L58.50 187.23L59.03 186.13L59.69 185.16L60.46 184.36L61.28 183.72L62.11 183.27L62.92 183.00L63.65 182.88L64.27 182.89L64.75 182.99L65.08 183.15L65.26 183.32L65.27 183.45L65.15 183.51L64.92 183.45L64.61 183.26L64.26 182.91L63.92 182.39L63.63 181.71L63.43 180.88L63.36 179.93L63.45 178.90L63.72 177.83L64.18 176.75L64.83 175.71L65.65 174.77L66.61 173.95L67.69 173.28L68.84 172.80L70.02 172.50L71.19 172.40L72.30 172.48L73.31 172.71L74.19 173.06L74.91 173.51L75.47 173.99L75.86 174.48L76.09 174.92L76.18 175.28L76.16 175.51L76.06 175.61L75.94 175.56L75.84 175.34L75.79 174.98L75.84 174.48L76.02 173.89L76.36 173.23L76.87 172.55L77.56 171.90L78.41 171.31L79.41 170.83L80.54 170.50L81.75 170.34L83.00 170.36L84.24 170.58L85.44 170.99L86.55 171.57L87.53 172.29L88.35 173.13L89.00 174.03L89.47 174.95L89.75 175.86L89.87 176.70L89.85 177.44L89.73 178.05L89.53 178.50L89.32 178.80L89.12 178.94L88.99 178.93L88.95 178.80L89.05 178.58L89.30 178.31L89.71 178.04L90.29 177.80L91.01 177.64L91.86 177.60L92.80 177.71L93.80 178.00L94.80 178.46L95.78 179.12L96.67 179.94L97.45 180.92L98.07 182.02L98.52 183.21L98.78 184.43L98.85 185.65L98.73 186.81L98.45 187.89L98.04 188.84L97.52 189.63L96.95 190.26L96.37 190.72L95.82 191.01L95.34 191.15L94.98 191.17L94.74 191.11L94.66 191.00Z" fill="none" stroke="#C4AA77" stroke-width="0.070" transform="rotate(0.00 79.00 191.00)"/><path d="M94.66 191.00L94.74 190.89L94.98 190.83L95.34 190.85L95.82 190.99L96.37 191.28L96.95 191.74L97.52 192.37L98.04 193.16L98.45 194.11L98.73 195.19L98.85 196.35L98.78 197.57L98.52 198.79L98.07 199.98L97.45 201.08L96.67 202.06L95.78 202.88L94.80 203.54L93.80 204.00L92.80 204.29L91.86 204.40L91.01 204.36L90.29 204.20L89.71 203.96L89.30 203.69L89.05 203.42L88.95 203.20L88.99 203.07L89.12 203.06L89.32 203.20L89.53 203.50L89.73 203.95L89.85 204.56L89.87 205.30L89.75 206.14L89.47 207.05L89.00 207.97L88.35 208.87L87.53 209.71L86.55 210.43L85.44 211.01L84.24 211.42L83.00 211.64L81.75 211.66L80.54 211.50L79.41 211.17L78.41 210.69L77.56 210.10L76.87 209.45L76.36 208.77L76.02 208.11L75.84 207.52L75.79 207.02L75.84 206.66L75.94 206.44L76.06 206.39L76.16 206.49L76.18 206.72L76.09 207.08L75.86 207.52L75.47 208.01L74.91 208.49L74.19 208.94L73.31 209.29L72.30 209.52L71.19 209.60L70.02 209.50L68.84 209.20L67.69 208.72L66.61 208.05L65.65 207.23L64.83 206.29L64.18 205.25L63.72 204.17L63.45 203.10L63.36 202.07L63.43 201.12L63.63 200.29L63.92 199.61L64.26 199.09L64.61 198.74L64.92 198.55L65.15 198.49L65.27 198.55L65.26 198.68L65.08 198.85L64.75 199.01L64.27 199.11L63.65 199.12L62.92 199.00L62.11 198.73L61.28 198.28L60.46 197.64L59.69 196.84L59.03 195.87L58.50 194.77L58.14 193.58L57.96 192.32L57.98 191.06L58.19 189.83L58.57 188.67L59.11 187.63L59.77 186.73L60.51 186.00L61.28 185.45L62.04 185.08L62.75 184.87L63.37 184.80L63.86 184.84L64.21 184.96L64.40 185.10L64.44 185.23L64.32 185.30L64.08 185.28L63.75 185.12L63.36 184.82L62.96 184.35L62.58 183.71L62.28 182.91L62.10 181.98L62.06 180.95L62.19 179.84L62.51 178.72L63.02 177.61L63.72 176.57L64.57 175.63L65.56 174.84L66.64 174.22L67.78 173.78L68.92 173.53L70.03 173.46L71.06 173.56L71.98 173.81L72.75 174.16L73.37 174.57L73.81 175.00L74.09 175.41L74.23 175.75L74.24 175.99L74.16 176.10L74.03 176.06L73.90 175.86L73.81 175.50L73.79 175.01L73.90 174.40L74.15 173.70L74.58 172.96L75.17 172.23L75.95 171.54L76.88 170.94L77.96 170.47L79.13 170.16L80.38 170.02L81.64 170.09L82.88 170.34L84.05 170.78L85.12 171.37L86.04 172.10L86.80 172.91L87.37 173.77L87.77 174.63L88.00 175.45L88.07 176.19L88.02 176.80L87.88 177.28L87.71 177.60L87.53 177.76L87.39 177.77L87.34 177.65L87.41 177.42L87.63 177.12L88.00 176.80L88.54 176.49L89.24 176.24L90.08 176.09L91.03 176.09L92.05 176.24L93.11 176.58L94.16 177.11L95.15 177.82L96.04 178.69L96.80 179.70L97.39 180.82L97.80 182.00L98.02 183.20L98.05 184.37L97.91 185.48L97.61 186.47L97.20 187.32L96.72 188.02L96.20 188.54L95.69 188.90L95.23 189.10L94.87 189.17L94.63 189.13L94.54 189.04L94.61 188.92L94.83 188.83L95.19 188.80L95.68 188.88L96.27 189.10L96.90 189.48L97.55 190.03L98.16 190.76L98.69 191.65L99.10 192.68L99.36 193.82L99.45 195.04L99.35 196.28L99.05 197.51L98.57 198.68L97.92 199.75L97.13 200.69L96.25 201.46L95.31 202.05L94.36 202.45L93.44 202.68L92.59 202.75L91.85 202.68L91.25 202.52L90.81 202.30L90.53 202.06L90.40 201.86L90.42 201.72L90.55 201.70L90.76 201.81L91.02 202.08L91.27 202.51L91.47 203.09L91.58 203.82L91.57 204.67L91.40 205.61L91.05 206.58L90.52 207.56L89.81 208.49L88.92 209.33L87.90 210.04L86.76 210.60L85.55 210.97L84.31 211.16L83.10 211.15L81.94 210.96L80.88 210.61L79.96 210.13L79.20 209.57L78.61 208.96L78.19 208.35L77.93 207.78L77.82 207.30L77.83 206.93L77.90 206.71L78.02 206.63L78.12 206.72L78.17 206.95L78.12 207.32L77.95 207.79L77.63 208.32L77.14 208.87L76.47 209.40L75.65 209.86L74.67 210.22L73.58 210.43L72.41 210.47L71.20 210.33L70.00 210.00L68.84 209.47L67.79 208.78L66.86 207.94L66.09 207.00L65.50 205.99L65.09 204.95L64.87 203.94L64.82 202.99L64.91 202.15L65.11 201.44L65.39 200.88L65.69 200.48L65.97 200.25L66.20 200.17L66.33 200.21L66.33 200.34L66.18 200.53L65.87 200.73L65.40 200.89L64.78 200.98L64.05 200.95L63.21 200.78L62.33 200.44L61.43 199.92L60.58 199.21L59.80 198.34L59.13 197.31L58.63 196.17L58.29 194.95L58.15 193.69L58.21 192.44L58.44 191.25L58.85 190.15L59.39 189.18L60.03 188.36L60.72 187.72L61.43 187.25L62.11 186.95L62.71 186.81L63.21 186.79L63.57 186.86L63.78 186.98L63.83 187.10L63.72 187.19L63.48 187.19L63.13 187.08L62.71 186.83L62.25 186.41L61.80 185.82L61.40 185.07L61.10 184.17L60.93 183.15L60.93 182.04L61.10 180.88L61.47 179.72L62.03 178.60L62.76 177.56L63.64 176.65L64.63 175.90L65.71 175.32L66.81 174.93L67.90 174.72L68.94 174.70L69.88 174.82L70.69 175.07L71.35 175.40L71.85 175.78L72.18 176.15L72.35 176.47L72.39 176.71L72.33 176.83L72.20 176.80L72.04 176.62L71.91 176.28L71.83 175.79L71.86 175.17L72.02 174.44L72.35 173.66L72.85 172.86L73.53 172.08L74.39 171.36L75.39 170.76L76.52 170.30L77.74 170.02L79.00 169.92L80.26 170.02L81.48 170.30L82.61 170.76L83.61 171.36L84.47 172.08L85.15 172.86L85.65 173.66L85.98 174.44L86.14 175.17L86.17 175.79L86.09 176.28L85.96 176.62L85.80 176.80L85.67 176.83L85.61 176.71L85.65 176.47L85.82 176.15L86.15 175.78L86.65 175.40L87.31 175.07L88.12 174.82L89.06 174.70L90.10 174.72L91.19 174.93L92.29 175.32L93.37 175.90L94.36 176.65L95.24 177.56L95.97 178.60L96.53 179.72L96.90 180.88L97.07 182.04L97.07 183.15L96.90 184.17L96.60 185.07L96.20 185.82L95.75 186.41L95.29 186.83L94.87 187.08L94.52 187.19L94.28 187.19L94.17 187.10L94.22 186.98L94.43 186.86L94.79 186.79L95.29 186.81L95.89 186.95L96.57 187.25L97.28 187.72L97.97 188.36L98.61 189.18L99.15 190.15L99.56 191.25L99.79 192.44L99.85 193.69L99.71 194.95L99.37 196.17L98.87 197.31L98.20 198.34L97.42 199.21L96.57 199.92L95.67 200.44L94.79 200.78L93.95 200.95L93.22 200.98L92.60 200.89L92.13 200.73L91.82 200.53L91.67 200.34L91.67 200.21L91.80 200.17L92.03 200.25L92.31 200.48L92.61 200.88L92.89 201.44L93.09 202.15L93.18 202.99L93.13 203.94L92.91 204.95L92.50 205.99L91.91 207.00L91.14 207.94L90.21 208.78L89.16 209.47L88.00 210.00L86.80 210.33L85.59 210.47L84.42 210.43L83.33 210.22L82.35 209.86L81.53 209.40L80.86 208.87L80.37 208.32L80.05 207.79L79.88 207.32L79.83 206.95L79.88 206.72L79.98 206.63L80.10 206.71L80.17 206.93L80.18 207.30L80.07 207.78L79.81 208.35L79.39 208.96L78.80 209.57L78.04 210.13L77.12 210.61L76.06 210.96L74.90 211.15L73.69 211.16L72.45 210.97L71.24 210.60L70.10 210.04L69.08 209.33L68.19 208.49L67.48 207.56L66.95 206.58L66.60 205.61L66.43 204.67L66.42 203.82L66.53 203.09L66.73 202.51L66.98 202.08L67.24 201.81L67.45 201.70L67.58 201.72L67.60 201.86L67.47 202.06L67.19 202.30L66.75 202.52L66.15 202.68L65.41 202.75L64.56 202.68L63.64 202.45L62.69 202.05L61.75 201.46L60.87 200.69L60.08 199.75L59.43 198.68L58.95 197.51L58.65 196.28L58.55 195.04L58.64 193.82L58.90 192.68L59.31 191.65L59.84 190.76L60.45 190.03L61.10 189.48L61.73 189.10L62.32 188.88L62.81 188.80L63.17 188.83L63.39 188.92L63.46 189.04L63.37 189.13L63.13 189.17L62.77 189.10L62.31 188.90L61.80 188.54L61.28 188.02L60.80 187.32L60.39 186.47L60.09 185.48L59.95 184.37L59.98 183.20L60.20 182.00L60.61 180.82L61.20 179.70L61.96 178.69L62.85 177.82L63.84 177.11L64.89 176.58L65.95 176.24L66.97 176.09L67.92 176.09L68.76 176.24L69.46 176.49L70.00 176.80L70.37 177.12L70.59 177.42L70.66 177.65L70.61 177.77L70.47 177.76L70.29 177.60L70.12 177.28L69.98 176.80L69.93 176.19L70.00 175.45L70.23 174.63L70.63 173.77L71.20 172.91L71.96 172.10L72.88 171.37L73.95 170.78L75.12 170.34L76.36 170.09L77.62 170.02L78.87 170.16L80.04 170.47L81.12 170.94L82.05 171.54L82.83 172.23L83.42 172.96L83.85 173.70L84.10 174.40L84.21 175.01L84.19 175.50L84.10 175.86L83.97 176.06L83.84 176.10L83.76 175.99L83.77 175.75L83.91 175.41L84.19 175.00L84.63 174.57L85.25 174.16L86.02 173.81L86.94 173.56L87.97 173.46L89.08 173.53L90.22 173.78L91.36 174.22L92.44 174.84L93.43 175.63L94.28 176.57L94.98 177.61L95.49 178.72L95.81 179.84L95.94 180.95L95.90 181.98L95.72 182.91L95.42 183.71L95.04 184.35L94.64 184.82L94.25 185.12L93.92 185.28L93.68 185.30L93.56 185.23L93.60 185.10L93.79 184.96L94.14 184.84L94.63 184.80L95.25 184.87L95.96 185.08L96.72 185.45L97.49 186.00L98.23 186.73L98.89 187.63L99.43 188.67L99.81 189.83L100.02 191.06L100.04 192.32L99.86 193.58L99.50 194.77L98.97 195.87L98.31 196.84L97.54 197.64L96.72 198.28L95.89 198.73L95.08 199.00L94.35 199.12L93.73 199.11L93.25 199.01L92.92 198.85L92.74 198.68L92.73 198.55L92.85 198.49L93.08 198.55L93.39 198.74L93.74 199.09L94.08 199.61L94.37 200.29L94.57 201.12L94.64 202.07L94.55 203.10L94.28 204.17L93.82 205.25L93.17 206.29L92.35 207.23L91.39 208.05L90.31 208.72L89.16 209.20L87.98 209.50L86.81 209.60L85.70 209.52L84.69 209.29L83.81 208.94L83.09 208.49L82.53 208.01L82.14 207.52L81.91 207.08L81.82 206.72L81.84 206.49L81.94 206.39L82.06 206.44L82.16 206.66L82.21 207.02L82.16 207.52L81.98 208.11L81.64 208.77L81.13 209.45L80.44 210.10L79.59 210.69L78.59 211.17L77.46 211.50L76.25 211.66L75.00 211.64L73.76 211.42L72.56 211.01L71.45 210.43L70.47 209.71L69.65 208.87L69.00 207.97L68.53 207.05L68.25 206.14L68.13 205.30L68.15 204.56L68.27 203.95L68.47 203.50L68.68 203.20L68.88 203.06L69.01 203.07L69.05 203.20L68.95 203.42L68.70 203.69L68.29 203.96L67.71 204.20L66.99 204.36L66.14 204.40L65.20 204.29L64.20 204.00L63.20 203.54L62.22 202.88L61.33 202.06L60.55 201.08L59.93 199.98L59.48 198.79L59.22 197.57L59.15 196.35L59.27 195.19L59.55 194.11L59.96 193.16L60.48 192.37L61.05 191.74L61.63 191.28L62.18 190.99L62.66 190.85L63.02 190.83L63.26 190.89L63.34 191.00L63.26 191.11L63.02 191.17L62.66 191.15L62.18 191.01L61.63 190.72L61.05 190.26L60.48 189.63L59.96 188.84L59.55 187.89L59.27 186.81L59.15 185.65L59.22 184.43L59.48 183.21L59.93 182.02L60.55 180.92L61.33 179.94L62.22 179.12L63.20 178.46L64.20 178.00L65.20 177.71L66.14 177.60L66.99 177.64L67.71 177.80L68.29 178.04L68.70 178.31L68.95 178.58L69.05 178.80L69.01 178.93L68.88 178.94L68.68 178.80L68.47 178.50L68.27 178.05L68.15 177.44L68.13 176.70L68.25 175.86L68.53 174.95L69.00 174.03L69.65 173.13L70.47 172.29L71.45 171.57L72.56 170.99L73.76 170.58L75.00 170.36L76.25 170.34L77.46 170.50L78.59 170.83L79.59 171.31L80.44 171.90L81.13 172.55L81.64 173.23L81.98 173.89L82.16 174.48L82.21 174.98L82.16 175.34L82.06 175.56L81.94 175.61L81.84 175.51L81.82 175.28L81.91 174.92L82.14 174.48L82.53 173.99L83.09 173.51L83.81 173.06L84.69 172.71L85.70 172.48L86.81 172.40L87.98 172.50L89.16 172.80L90.31 173.28L91.39 173.95L92.35 174.77L93.17 175.71L93.82 176.75L94.28 177.83L94.55 178.90L94.64 179.93L94.57 180.88L94.37 181.71L94.08 182.39L93.74 182.91L93.39 183.26L93.08 183.45L92.85 183.51L92.73 183.45L92.74 183.32L92.92 183.15L93.25 182.99L93.73 182.89L94.35 182.88L95.08 183.00L95.89 183.27L96.72 183.72L97.54 184.36L98.31 185.16L98.97 186.13L99.50 187.23L99.86 188.42L100.04 189.68L100.02 190.94L99.81 192.17L99.43 193.33L98.89 194.37L98.23 195.27L97.49 196.00L96.72 196.55L95.96 196.92L95.25 197.13L94.63 197.20L94.14 197.16L93.79 197.04L93.60 196.90L93.56 196.77L93.68 196.70L93.92 196.72L94.25 196.88L94.64 197.18L95.04 197.65L95.42 198.29L95.72 199.09L95.90 200.02L95.94 201.05L95.81 202.16L95.49 203.28L94.98 204.39L94.28 205.43L93.43 206.37L92.44 207.16L91.36 207.78L90.22 208.22L89.08 208.47L87.97 208.54L86.94 208.44L86.02 208.19L85.25 207.84L84.63 207.43L84.19 207.00L83.91 206.59L83.77 206.25L83.76 206.01L83.84 205.90L83.97 205.94L84.10 206.14L84.19 206.50L84.21 206.99L84.10 207.60L83.85 208.30L83.42 209.04L82.83 209.77L82.05 210.46L81.12 211.06L80.04 211.53L78.87 211.84L77.62 211.98L76.36 211.91L75.12 211.66L73.95 211.22L72.88 210.63L71.96 209.90L71.20 209.09L70.63 208.23L70.23 207.37L70.00 206.55L69.93 205.81L69.98 205.20L70.12 204.72L70.29 204.40L70.47 204.24L70.61 204.23L70.66 204.35L70.59 204.58L70.37 204.88L70.00 205.20L69.46 205.51L68.76 205.76L67.92 205.91L66.97 205.91L65.95 205.76L64.89 205.42L63.84 204.89L62.85 204.18L61.96 203.31L61.20 202.30L60.61 201.18L60.20 200.00L59.98 198.80L59.95 197.63L60.09 196.52L60.39 195.53L60.80 194.68L61.28 193.98L61.80 193.46L62.31 193.10L62.77 192.90L63.13 192.83L63.37 192.87L63.46 192.96L63.39 193.08L63.17 193.17L62.81 193.20L62.32 193.12L61.73 192.90L61.10 192.52L60.45 191.97L59.84 191.24L59.31 190.35L58.90 189.32L58.64 188.18L58.55 186.96L58.65 185.72L58.95 184.49L59.43 183.32L60.08 182.25L60.87 181.31L61.75 180.54L62.69 179.95L63.64 179.55L64.56 179.32L65.41 179.25L66.15 179.32L66.75 179.48L67.19 179.70L67.47 179.94L67.60 180.14L67.58 180.28L67.45 180.30L67.24 180.19L66.98 179.92L66.73 179.49L66.53 178.91L66.42 178.18L66.43 177.33L66.60 176.39L66.95 175.42L67.48 174.44L68.19 173.51L69.08 172.67L70.10 171.96L71.24 171.40L72.45 171.03L73.69 170.84L74.90 170.85L76.06 171.04L77.12 171.39L78.04 171.87L78.80 172.43L79.39 173.04L79.81 173.65L80.07 174.22L80.18 174.70L80.17 175.07L80.10 175.29L79.98 175.37L79.88 175.28L79.83 175.05L79.88 174.68L80.05 174.21L80.37 173.68L80.86 173.13L81.53 172.60L82.35 172.14L83.33 171.78L84.42 171.57L85.59 171.53L86.80 171.67L88.00 172.00L89.16 172.53L90.21 173.22L91.14 174.06L91.91 175.00L92.50 176.01L92.91 177.05L93.13 178.06L93.18 179.01L93.09 179.85L92.89 180.56L92.61 181.12L92.31 181.52L92.03 181.75L91.80 181.83L91.67 181.79L91.67 181.66L91.82 181.47L92.13 181.27L92.60 181.11L93.22 181.02L93.95 181.05L94.79 181.22L95.67 181.56L96.57 182.08L97.42 182.79L98.20 183.66L98.87 184.69L99.37 185.83L99.71 187.05L99.85 188.31L99.79 189.56L99.56 190.75L99.15 191.85L98.61 192.82L97.97 193.64L97.28 194.28L96.57 194.75L95.89 195.05L95.29 195.19L94.79 195.21L94.43 195.14L94.22 195.02L94.17 194.90L94.28 194.81L94.52 194.81L94.87 194.92L95.29 195.17L95.75 195.59L96.20 196.18L96.60 196.93L96.90 197.83L97.07 198.85L97.07 199.96L96.90 201.12L96.53 202.28L95.97 203.40L95.24 204.44L94.36 205.35L93.37 206.10L92.29 206.68L91.19 207.07L90.10 207.28L89.06 207.30L88.12 207.18L87.31 206.93L86.65 206.60L86.15 206.22L85.82 205.85L85.65 205.53L85.61 205.29L85.67 205.17L85.80 205.20L85.96 205.38L86.09 205.72L86.17 206.21L86.14 206.83L85.98 207.56L85.65 208.34L85.15 209.14L84.47 209.92L83.61 210.64L82.61 211.24L81.48 211.70L80.26 211.98L79.00 212.08L77.74 211.98L76.52 211.70L75.39 211.24L74.39 210.64L73.53 209.92L72.85 209.14L72.35 208.34L72.02 207.56L71.86 206.83L71.83 206.21L71.91 205.72L72.04 205.38L72.20 205.20L72.33 205.17L72.39 205.29L72.35 205.53L72.18 205.85L71.85 206.22L71.35 206.60L70.69 206.93L69.88 207.18L68.94 207.30L67.90 207.28L66.81 207.07L65.71 206.68L64.63 206.10L63.64 205.35L62.76 204.44L62.03 203.40L61.47 202.28L61.10 201.12L60.93 199.96L60.93 198.85L61.10 197.83L61.40 196.93L61.80 196.18L62.25 195.59L62.71 195.17L63.13 194.92L63.48 194.81L63.72 194.81L63.83 194.90L63.78 195.02L63.57 195.14L63.21 195.21L62.71 195.19L62.11 195.05L61.43 194.75L60.72 194.28L60.03 193.64L59.39 192.82L58.85 191.85L58.44 190.75L58.21 189.56L58.15 188.31L58.29 187.05L58.63 185.83L59.13 184.69L59.80 183.66L60.58 182.79L61.43 182.08L62.33 181.56L63.21 181.22L64.05 181.05L64.78 181.02L65.40 181.11L65.87 181.27L66.18 181.47L66.33 181.66L66.33 181.79L66.20 181.83L65.97 181.75L65.69 181.52L65.39 181.12L65.11 180.56L64.91 179.85L64.82 179.01L64.87 178.06L65.09 177.05L65.50 176.01L66.09 175.00L66.86 174.06L67.79 173.22L68.84 172.53L70.00 172.00L71.20 171.67L72.41 171.53L73.58 171.57L74.67 171.78L75.65 172.14L76.47 172.60L77.14 173.13L77.63 173.68L77.95 174.21L78.12 174.68L78.17 175.05L78.12 175.28L78.02 175.37L77.90 175.29L77.83 175.07L77.82 174.70L77.93 174.22L78.19 173.65L78.61 173.04L79.20 172.43L79.96 171.87L80.88 171.39L81.94 171.04L83.10 170.85L84.31 170.84L85.55 171.03L86.76 171.40L87.90 171.96L88.92 172.67L89.81 173.51L90.52 174.44L91.05 175.42L91.40 176.39L91.57 177.33L91.58 178.18L91.47 178.91L91.27 179.49L91.02 179.92L90.76 180.19L90.55 180.30L90.42 180.28L90.40 180.14L90.53 179.94L90.81 179.70L91.25 179.48L91.85 179.32L92.59 179.25L93.44 179.32L94.36 179.55L95.31 179.95L96.25 180.54L97.13 181.31L97.92 182.25L98.57 183.32L99.05 184.49L99.35 185.72L99.45 186.96L99.36 188.18L99.10 189.32L98.69 190.35L98.16 191.24L97.55 191.97L96.90 192.52L96.27 192.90L95.68 193.12L95.19 193.20L94.83 193.17L94.61 193.08L94.54 192.96L94.63 192.87L94.87 192.83L95.23 192.90L95.69 193.10L96.20 193.46L96.72 193.98L97.20 194.68L97.61 195.53L97.91 196.52L98.05 197.63L98.02 198.80L97.80 200.00L97.39 201.18L96.80 202.30L96.04 203.31L95.15 204.18L94.16 204.89L93.11 205.42L92.05 205.76L91.03 205.91L90.08 205.91L89.24 205.76L88.54 205.51L88.00 205.20L87.63 204.88L87.41 204.58L87.34 204.35L87.39 204.23L87.53 204.24L87.71 204.40L87.88 204.72L88.02 205.20L88.07 205.81L88.00 206.55L87.77 207.37L87.37 208.23L86.80 209.09L86.04 209.90L85.12 210.63L84.05 211.22L82.88 211.66L81.64 211.91L80.38 211.98L79.13 211.84L77.96 211.53L76.88 211.06L75.95 210.46L75.17 209.77L74.58 209.04L74.15 208.30L73.90 207.60L73.79 206.99L73.81 206.50L73.90 206.14L74.03 205.94L74.16 205.90L74.24 206.01L74.23 206.25L74.09 206.59L73.81 207.00L73.37 207.43L72.75 207.84L71.98 208.19L71.06 208.44L70.03 208.54L68.92 208.47L67.78 208.22L66.64 207.78L65.56 207.16L64.57 206.37L63.72 205.43L63.02 204.39L62.51 203.28L62.19 202.16L62.06 201.05L62.10 200.02L62.28 199.09L62.58 198.29L62.96 197.65L63.36 197.18L63.75 196.88L64.08 196.72L64.32 196.70L64.44 196.77L64.40 196.90L64.21 197.04L63.86 197.16L63.37 197.20L62.75 197.13L62.04 196.92L61.28 196.55L60.51 196.00L59.77 195.27L59.11 194.37L58.57 193.33L58.19 192.17L57.98 190.94L57.96 189.68L58.14 188.42L58.50 187.23L59.03 186.13L59.69 185.16L60.46 184.36L61.28 183.72L62.11 183.27L62.92 183.00L63.65 182.88L64.27 182.89L64.75 182.99L65.08 183.15L65.26 183.32L65.27 183.45L65.15 183.51L64.92 183.45L64.61 183.26L64.26 182.91L63.92 182.39L63.63 181.71L63.43 180.88L63.36 179.93L63.45 178.90L63.72 177.83L64.18 176.75L64.83 175.71L65.65 174.77L66.61 173.95L67.69 173.28L68.84 172.80L70.02 172.50L71.19 172.40L72.30 172.48L73.31 172.71L74.19 173.06L74.91 173.51L75.47 173.99L75.86 174.48L76.09 174.92L76.18 175.28L76.16 175.51L76.06 175.61L75.94 175.56L75.84 175.34L75.79 174.98L75.84 174.48L76.02 173.89L76.36 173.23L76.87 172.55L77.56 171.90L78.41 171.31L79.41 170.83L80.54 170.50L81.75 170.34L83.00 170.36L84.24 170.58L85.44 170.99L86.55 171.57L87.53 172.29L88.35 173.13L89.00 174.03L89.47 174.95L89.75 175.86L89.87 176.70L89.85 177.44L89.73 178.05L89.53 178.50L89.32 178.80L89.12 178.94L88.99 178.93L88.95 178.80L89.05 178.58L89.30 178.31L89.71 178.04L90.29 177.80L91.01 177.64L91.86 177.60L92.80 177.71L93.80 178.00L94.80 178.46L95.78 179.12L96.67 179.94L97.45 180.92L98.07 182.02L98.52 183.21L98.78 184.43L98.85 185.65L98.73 186.81L98.45 187.89L98.04 188.84L97.52 189.63L96.95 190.26L96.37 190.72L95.82 191.01L95.34 191.15L94.98 191.17L94.74 191.11L94.66 191.00Z" fill="none" stroke="#C4AA77" stroke-width="0.070" transform="rotate(3.60 79.00 191.00)"/></g><rect x="57.92" y="190.04" width="42.16" height="5.28" fill="#F7F1E4" opacity="0.88"/><text x="79.00" y="188.40" text-anchor="middle" font-size="1.62" letter-spacing="0.30" font-family="Inter, sans-serif" fill="#8C7B7B">CERTIFICATE NUMBER</text><text x="79.00" y="194.80" text-anchor="middle" font-size="3.4" letter-spacing="0.06" font-family="IBM Plex Mono, monospace" fill="#361C24">EDX-CERT-PHD-000007-BFJ7</text><rect x="211.00" y="171.00" width="64.00" height="26.00" fill="none" stroke="#E3C169" stroke-width="0.42"/><rect x="211.90" y="171.90" width="62.20" height="24.20" fill="none" stroke="#4A3714" stroke-width="0.14"/><line x1="213.20" y1="175.26" x2="272.80" y2="175.26" stroke="#FBEFC2" stroke-width="0.075" stroke-linecap="butt"/><line x1="213.20" y1="175.40" x2="272.80" y2="175.40" stroke="#E3C169" stroke-width="0.220" stroke-linecap="butt"/><line x1="213.20" y1="175.54" x2="272.80" y2="175.54" stroke="#6B4E1E" stroke-width="0.088" stroke-linecap="butt"/><rect x="226.00" y="172.20" width="34" height="4.2" fill="#F7F1E4"/><text x="243.00" y="175.20" text-anchor="middle" font-size="1.95" letter-spacing="0.34" font-family="Inter, sans-serif" font-weight="600" fill="#8C7B7B">CERTIFICATE VERIFICATION</text><text x="213.60" y="178.80" font-size="1.65" letter-spacing="0.20" font-family="Inter, sans-serif" fill="#8C7B7B">DOCUMENT ID</text><text x="213.60" y="182.10" font-size="2.05" font-family="IBM Plex Mono, monospace" fill="#3A2028">DID-2031-PHD-0000007</text><text x="245.50" y="178.80" font-size="1.65" letter-spacing="0.20" font-family="Inter, sans-serif" fill="#8C7B7B">VERIFICATION CODE</text><text x="245.50" y="182.10" font-size="2.05" font-family="IBM Plex Mono, monospace" fill="#3A2028">BFJ7-DRNM-8VZ9</text><text x="213.60" y="184.80" font-size="1.65" letter-spacing="0.20" font-family="Inter, sans-serif" fill="#8C7B7B">ARCHIVE REFERENCE</text><text x="213.60" y="188.10" font-size="2.05" font-family="IBM Plex Mono, monospace" fill="#3A2028">ARCH/PHD/2031/000007</text><text x="245.50" y="184.80" font-size="1.65" letter-spacing="0.20" font-family="Inter, sans-serif" fill="#8C7B7B">STUDENT IDENTITY NO.</text><text x="245.50" y="188.10" font-size="2.05" font-family="IBM Plex Mono, monospace" fill="#3A2028">712878764389035</text><rect x="218.400" y="189.20" width="0.800" height="3.50" fill="#000000"/><rect x="219.600" y="189.20" width="0.400" height="3.50" fill="#000000"/><rect x="220.800" y="189.20" width="1.200" height="3.50" fill="#000000"/><rect x="222.800" y="189.20" width="0.400" height="3.50" fill="#000000"/><rect x="224.000" y="189.20" width="0.800" height="3.50" fill="#000000"/><rect x="226.000" y="189.20" width="0.400" height="3.50" fill="#000000"/><rect x="227.200" y="189.20" width="0.400" height="3.50" fill="#000000"/><rect x="228.000" y="189.20" width="0.800" height="3.50" fill="#000000"/><rect x="229.600" y="189.20" width="1.200" height="3.50" fill="#000000"/><rect x="231.600" y="189.20" width="1.600" height="3.50" fill="#000000"/><rect x="234.000" y="189.20" width="0.400" height="3.50" fill="#000000"/><rect x="234.800" y="189.20" width="0.400" height="3.50" fill="#000000"/><rect x="236.000" y="189.20" width="1.600" height="3.50" fill="#000000"/><rect x="238.400" y="189.20" width="0.400" height="3.50" fill="#000000"/><rect x="239.200" y="189.20" width="0.400" height="3.50" fill="#000000"/><rect x="240.400" y="189.20" width="0.400" height="3.50" fill="#000000"/><rect x="241.200" y="189.20" width="0.400" height="3.50" fill="#000000"/><rect x="243.200" y="189.20" width="0.800" height="3.50" fill="#000000"/><rect x="244.800" y="189.20" width="0.400" height="3.50" fill="#000000"/><rect x="246.400" y="189.20" width="0.800" height="3.50" fill="#000000"/><rect x="248.400" y="189.20" width="0.400" height="3.50" fill="#000000"/><rect x="249.200" y="189.20" width="0.800" height="3.50" fill="#000000"/><rect x="250.400" y="189.20" width="1.600" height="3.50" fill="#000000"/><rect x="252.400" y="189.20" width="0.800" height="3.50" fill="#000000"/><rect x="253.600" y="189.20" width="0.400" height="3.50" fill="#000000"/><rect x="255.200" y="189.20" width="0.400" height="3.50" fill="#000000"/><rect x="256.800" y="189.20" width="0.800" height="3.50" fill="#000000"/><rect x="258.000" y="189.20" width="0.800" height="3.50" fill="#000000"/><rect x="260.000" y="189.20" width="0.400" height="3.50" fill="#000000"/><rect x="260.800" y="189.20" width="0.400" height="3.50" fill="#000000"/><rect x="262.400" y="189.20" width="0.800" height="3.50" fill="#000000"/><rect x="264.400" y="189.20" width="1.200" height="3.50" fill="#000000"/><rect x="266.000" y="189.20" width="0.400" height="3.50" fill="#000000"/><rect x="266.800" y="189.20" width="0.800" height="3.50" fill="#000000"/><line x1="213.20" y1="192.99" x2="272.80" y2="192.99" stroke="#FBEFC2" stroke-width="0.061" stroke-linecap="butt"/><line x1="213.20" y1="193.10" x2="272.80" y2="193.10" stroke="#E3C169" stroke-width="0.180" stroke-linecap="butt"/><line x1="213.20" y1="193.21" x2="272.80" y2="193.21" stroke="#6B4E1E" stroke-width="0.072" stroke-linecap="butt"/><text x="243.00" y="195.00" text-anchor="middle" font-size="1.50" letter-spacing="0.10" font-family="Inter, sans-serif" fill="#8C7B7B">EDIRASX.COM/VERIFY · VOID IF ALTERED, ERASED OR REPRODUCED</text></svg>